<svg width="596" height="433" viewBox="0 0 596 433" fill="none" xmlns="http://www.w3.org/2000/svg">
<g clip-path="url(#clip0_16_119)">
<path d="M347.169 76.3329C358.339 76.3329 367.394 67.2876 367.394 56.1297C367.394 44.9718 358.339 35.9265 347.169 35.9265C335.999 35.9265 326.944 44.9718 326.944 56.1297C326.944 67.2876 335.999 76.3329 347.169 76.3329Z" fill="#F2F2F2"/>
<path d="M504.063 376.171C534.125 353.298 548.484 314.863 539.495 278.198C539.272 277.287 539.036 276.378 538.788 275.471C532.828 253.707 518.085 233.022 496.596 226.068C478.553 220.229 458.859 224.719 440.036 222.397C403.085 217.839 374.437 187.974 354.281 156.705C334.124 125.436 318.632 90.4353 291.848 64.6026C247.698 22.0217 175.679 12.854 120.94 40.571C66.2012 68.288 31.333 129.781 32.8201 191.066C34.3072 252.351 70.7291 310.943 123.623 342.03C143.054 353.451 165.528 361.541 187.894 358.71C207.3 356.254 224.934 345.837 244.249 342.745C274.617 337.883 304.792 351.598 331.058 367.581C357.324 383.564 382.696 402.508 412.544 409.918C441.526 417.112 477.432 396.433 504.063 376.171Z" fill="#F2F2F2"/>
<path d="M460.87 41.8579C460.211 41.4191 459.545 41.0029 458.886 40.5792C439.836 28.409 419.417 18.5221 398.052 11.1227L393.098 79.3879H361.693V1.15762C359.716 0.749024 357.724 0.363132 355.732 -6.10352e-05V79.3879H318.411C297.865 79.3879 278.161 71.2351 263.633 56.723C249.105 42.2109 240.944 22.5283 240.944 2.00515C238.944 2.43645 236.959 2.89794 234.975 3.38976V79.3879H204.577L199.858 14.2931C177.902 22.7043 157.058 33.7654 137.79 47.2302C137.457 47.4572 137.123 47.6917 136.798 47.9187C135.124 49.0915 133.472 50.2871 131.829 51.4977V311.93H221.416L219.833 290.025L211.122 169.755H386.546L377.835 290.025L376.252 311.93H464.847V44.4911C463.529 43.5983 462.203 42.7206 460.87 41.8579ZM234.975 149.893H209.682L205.009 85.3503H234.975V149.893ZM355.732 149.893H313.253V148.614C313.253 147.999 313.131 147.391 312.896 146.823C312.66 146.255 312.314 145.739 311.879 145.305C311.443 144.87 310.926 144.526 310.358 144.292C309.789 144.057 309.179 143.937 308.564 143.938H290.096C289.482 143.938 288.873 144.058 288.305 144.293C287.737 144.528 287.221 144.873 286.786 145.307C286.351 145.741 286.006 146.257 285.771 146.824C285.536 147.392 285.415 148 285.415 148.614V149.893H240.944V85.3503H355.732V149.893ZM361.693 149.893V85.3503H392.667L387.993 149.893H361.693Z" fill="#3F3D56"/>
<path d="M-3.05176e-05 328.607C6.58039 336.396 13.6979 343.715 21.3003 350.512L574.7 351.269C582.302 344.472 589.42 337.152 596 329.364L-3.05176e-05 328.607Z" fill="#3F3D56"/>
<path d="M375.278 258.466V323.314C375.279 324.14 375.608 324.933 376.193 325.517C376.778 326.101 377.571 326.43 378.398 326.431H474.601C475.429 326.43 476.222 326.101 476.807 325.517C477.392 324.933 477.721 324.14 477.722 323.314V258.466C477.72 257.64 477.39 256.849 476.805 256.265C476.22 255.682 475.428 255.354 474.601 255.353H378.398C377.572 255.354 376.779 255.682 376.194 256.265C375.609 256.849 375.28 257.64 375.278 258.466Z" fill="#3F3D56"/>
<path d="M377.535 259.273V322.514C377.536 322.955 377.712 323.379 378.024 323.691C378.337 324.003 378.76 324.179 379.202 324.18H473.801C474.243 324.179 474.666 324.003 474.979 323.691C475.291 323.379 475.467 322.955 475.468 322.514V259.273C475.468 258.831 475.293 258.407 474.98 258.094C474.667 257.781 474.243 257.604 473.801 257.603H379.202C378.76 257.604 378.336 257.781 378.023 258.094C377.711 258.407 377.535 258.831 377.535 259.273Z" fill="#6C63FF"/>
<path d="M373.266 335.961C373.442 336.182 373.666 336.36 373.921 336.482C374.176 336.603 374.456 336.666 374.738 336.665H477.749C478.031 336.664 478.309 336.601 478.563 336.48C478.818 336.359 479.042 336.182 479.219 335.964C479.397 335.745 479.523 335.49 479.589 335.216C479.656 334.943 479.66 334.658 479.602 334.383L478.003 326.796C477.937 326.486 477.794 326.198 477.588 325.958C477.382 325.718 477.119 325.533 476.823 325.42C476.609 325.336 476.38 325.293 476.15 325.293H376.331C376.101 325.293 375.873 325.336 375.658 325.42C375.362 325.533 375.099 325.718 374.893 325.958C374.687 326.198 374.544 326.486 374.478 326.796L372.879 334.383C372.822 334.658 372.827 334.942 372.894 335.215C372.961 335.489 373.088 335.743 373.266 335.961Z" fill="#2F2E41"/>
<path d="M472.616 328.561H475.049C475.253 328.561 475.419 328.396 475.419 328.192V327.029C475.419 326.825 475.253 326.66 475.049 326.66H472.616C472.411 326.66 472.246 326.825 472.246 327.029V328.192C472.246 328.396 472.411 328.561 472.616 328.561Z" fill="#3F3D56"/>
<path d="M466.27 328.561H468.703C468.908 328.561 469.073 328.396 469.073 328.192V327.029C469.073 326.825 468.908 326.66 468.703 326.66H466.27C466.066 326.66 465.901 326.825 465.901 327.029V328.192C465.901 328.396 466.066 328.561 466.27 328.561Z" fill="#3F3D56"/>
<path d="M459.925 328.561H462.358C462.562 328.561 462.728 328.396 462.728 328.192V327.029C462.728 326.825 462.562 326.66 462.358 326.66H459.925C459.721 326.66 459.555 326.825 459.555 327.029V328.192C459.555 328.396 459.721 328.561 459.925 328.561Z" fill="#3F3D56"/>
<path d="M453.58 328.561H456.013C456.217 328.561 456.382 328.396 456.382 328.192V327.029C456.382 326.825 456.217 326.66 456.013 326.66H453.58C453.375 326.66 453.21 326.825 453.21 327.029V328.192C453.21 328.396 453.375 328.561 453.58 328.561Z" fill="#3F3D56"/>
<path d="M447.234 328.561H449.667C449.871 328.561 450.037 328.396 450.037 328.192V327.029C450.037 326.825 449.871 326.66 449.667 326.66H447.234C447.03 326.66 446.864 326.825 446.864 327.029V328.192C446.864 328.396 447.03 328.561 447.234 328.561Z" fill="#3F3D56"/>
<path d="M440.889 328.561H443.322C443.526 328.561 443.692 328.396 443.692 328.192V327.029C443.692 326.825 443.526 326.66 443.322 326.66H440.889C440.685 326.66 440.519 326.825 440.519 327.029V328.192C440.519 328.396 440.685 328.561 440.889 328.561Z" fill="#3F3D56"/>
<path d="M434.543 328.561H436.976C437.181 328.561 437.346 328.396 437.346 328.192V327.029C437.346 326.825 437.181 326.66 436.976 326.66H434.543C434.339 326.66 434.174 326.825 434.174 327.029V328.192C434.174 328.396 434.339 328.561 434.543 328.561Z" fill="#3F3D56"/>
<path d="M428.198 328.561H430.631C430.835 328.561 431.001 328.396 431.001 328.192V327.029C431.001 326.825 430.835 326.66 430.631 326.66H428.198C427.994 326.66 427.828 326.825 427.828 327.029V328.192C427.828 328.396 427.994 328.561 428.198 328.561Z" fill="#3F3D56"/>
<path d="M421.853 328.561H424.286C424.49 328.561 424.655 328.396 424.655 328.192V327.029C424.655 326.825 424.49 326.66 424.286 326.66H421.853C421.648 326.66 421.483 326.825 421.483 327.029V328.192C421.483 328.396 421.648 328.561 421.853 328.561Z" fill="#3F3D56"/>
<path d="M415.507 328.561H417.94C418.144 328.561 418.31 328.396 418.31 328.192V327.029C418.31 326.825 418.144 326.66 417.94 326.66H415.507C415.303 326.66 415.137 326.825 415.137 327.029V328.192C415.137 328.396 415.303 328.561 415.507 328.561Z" fill="#3F3D56"/>
<path d="M409.162 328.561H411.595C411.799 328.561 411.965 328.396 411.965 328.192V327.029C411.965 326.825 411.799 326.66 411.595 326.66H409.162C408.958 326.66 408.792 326.825 408.792 327.029V328.192C408.792 328.396 408.958 328.561 409.162 328.561Z" fill="#3F3D56"/>
<path d="M402.816 328.561H405.249C405.454 328.561 405.619 328.396 405.619 328.192V327.029C405.619 326.825 405.454 326.66 405.249 326.66H402.816C402.612 326.66 402.447 326.825 402.447 327.029V328.192C402.447 328.396 402.612 328.561 402.816 328.561Z" fill="#3F3D56"/>
<path d="M396.471 328.561H398.904C399.108 328.561 399.274 328.396 399.274 328.192V327.029C399.274 326.825 399.108 326.66 398.904 326.66H396.471C396.267 326.66 396.101 326.825 396.101 327.029V328.192C396.101 328.396 396.267 328.561 396.471 328.561Z" fill="#3F3D56"/>
<path d="M390.126 328.561H392.559C392.763 328.561 392.928 328.396 392.928 328.192V327.029C392.928 326.825 392.763 326.66 392.559 326.66H390.126C389.921 326.66 389.756 326.825 389.756 327.029V328.192C389.756 328.396 389.921 328.561 390.126 328.561Z" fill="#3F3D56"/>
<path d="M383.78 328.561H386.213C386.418 328.561 386.583 328.396 386.583 328.192V327.029C386.583 326.825 386.418 326.66 386.213 326.66H383.78C383.576 326.66 383.41 326.825 383.41 327.029V328.192C383.41 328.396 383.576 328.561 383.78 328.561Z" fill="#3F3D56"/>
<path d="M377.435 328.561H379.868C380.072 328.561 380.238 328.396 380.238 328.192V327.029C380.238 326.825 380.072 326.66 379.868 326.66H377.435C377.231 326.66 377.065 326.825 377.065 327.029V328.192C377.065 328.396 377.231 328.561 377.435 328.561Z" fill="#3F3D56"/>
<path d="M472.691 331.731H475.124C475.328 331.731 475.494 331.565 475.494 331.361V330.198C475.494 329.994 475.328 329.829 475.124 329.829H472.691C472.486 329.829 472.321 329.994 472.321 330.198V331.361C472.321 331.565 472.486 331.731 472.691 331.731Z" fill="#3F3D56"/>
<path d="M466.345 331.731H468.778C468.983 331.731 469.148 331.565 469.148 331.361V330.198C469.148 329.994 468.983 329.829 468.778 329.829H466.345C466.141 329.829 465.976 329.994 465.976 330.198V331.361C465.976 331.565 466.141 331.731 466.345 331.731Z" fill="#3F3D56"/>
<path d="M460 331.731H462.433C462.637 331.731 462.803 331.565 462.803 331.361V330.198C462.803 329.994 462.637 329.829 462.433 329.829H460C459.796 329.829 459.63 329.994 459.63 330.198V331.361C459.63 331.565 459.796 331.731 460 331.731Z" fill="#3F3D56"/>
<path d="M453.654 331.731H456.088C456.292 331.731 456.457 331.565 456.457 331.361V330.198C456.457 329.994 456.292 329.829 456.088 329.829H453.654C453.45 329.829 453.285 329.994 453.285 330.198V331.361C453.285 331.565 453.45 331.731 453.654 331.731Z" fill="#3F3D56"/>
<path d="M447.309 331.731H449.742C449.946 331.731 450.112 331.565 450.112 331.361V330.198C450.112 329.994 449.946 329.829 449.742 329.829H447.309C447.105 329.829 446.939 329.994 446.939 330.198V331.361C446.939 331.565 447.105 331.731 447.309 331.731Z" fill="#3F3D56"/>
<path d="M440.964 331.731H443.397C443.601 331.731 443.767 331.565 443.767 331.361V330.198C443.767 329.994 443.601 329.829 443.397 329.829H440.964C440.759 329.829 440.594 329.994 440.594 330.198V331.361C440.594 331.565 440.759 331.731 440.964 331.731Z" fill="#3F3D56"/>
<path d="M434.618 331.731H437.051C437.256 331.731 437.421 331.565 437.421 331.361V330.198C437.421 329.994 437.256 329.829 437.051 329.829H434.618C434.414 329.829 434.248 329.994 434.248 330.198V331.361C434.248 331.565 434.414 331.731 434.618 331.731Z" fill="#3F3D56"/>
<path d="M428.273 331.731H430.706C430.91 331.731 431.076 331.565 431.076 331.361V330.198C431.076 329.994 430.91 329.829 430.706 329.829H428.273C428.069 329.829 427.903 329.994 427.903 330.198V331.361C427.903 331.565 428.069 331.731 428.273 331.731Z" fill="#3F3D56"/>
<path d="M421.927 331.731H424.361C424.565 331.731 424.73 331.565 424.73 331.361V330.198C424.73 329.994 424.565 329.829 424.361 329.829H421.927C421.723 329.829 421.558 329.994 421.558 330.198V331.361C421.558 331.565 421.723 331.731 421.927 331.731Z" fill="#3F3D56"/>
<path d="M415.582 331.731H418.015C418.219 331.731 418.385 331.565 418.385 331.361V330.198C418.385 329.994 418.219 329.829 418.015 329.829H415.582C415.378 329.829 415.212 329.994 415.212 330.198V331.361C415.212 331.565 415.378 331.731 415.582 331.731Z" fill="#3F3D56"/>
<path d="M409.237 331.731H411.67C411.874 331.731 412.04 331.565 412.04 331.361V330.198C412.04 329.994 411.874 329.829 411.67 329.829H409.237C409.033 329.829 408.867 329.994 408.867 330.198V331.361C408.867 331.565 409.033 331.731 409.237 331.731Z" fill="#3F3D56"/>
<path d="M402.891 331.731H405.324C405.529 331.731 405.694 331.565 405.694 331.361V330.198C405.694 329.994 405.529 329.829 405.324 329.829H402.891C402.687 329.829 402.522 329.994 402.522 330.198V331.361C402.522 331.565 402.687 331.731 402.891 331.731Z" fill="#3F3D56"/>
<path d="M396.546 331.731H398.979C399.183 331.731 399.349 331.565 399.349 331.361V330.198C399.349 329.994 399.183 329.829 398.979 329.829H396.546C396.342 329.829 396.176 329.994 396.176 330.198V331.361C396.176 331.565 396.342 331.731 396.546 331.731Z" fill="#3F3D56"/>
<path d="M390.201 331.731H392.634C392.838 331.731 393.003 331.565 393.003 331.361V330.198C393.003 329.994 392.838 329.829 392.634 329.829H390.201C389.996 329.829 389.831 329.994 389.831 330.198V331.361C389.831 331.565 389.996 331.731 390.201 331.731Z" fill="#3F3D56"/>
<path d="M383.855 331.731H386.288C386.493 331.731 386.658 331.565 386.658 331.361V330.198C386.658 329.994 386.493 329.829 386.288 329.829H383.855C383.651 329.829 383.485 329.994 383.485 330.198V331.361C383.485 331.565 383.651 331.731 383.855 331.731Z" fill="#3F3D56"/>
<path d="M377.51 331.731H379.943C380.147 331.731 380.313 331.565 380.313 331.361V330.198C380.313 329.994 380.147 329.829 379.943 329.829H377.51C377.306 329.829 377.14 329.994 377.14 330.198V331.361C377.14 331.565 377.306 331.731 377.51 331.731Z" fill="#3F3D56"/>
<path d="M420.024 335.534H444.666C444.87 335.534 445.036 335.368 445.036 335.164V334.001C445.036 333.797 444.87 333.632 444.666 333.632H420.024C419.82 333.632 419.654 333.797 419.654 334.001V335.164C419.654 335.368 419.82 335.534 420.024 335.534Z" fill="#3F3D56"/>
<path d="M393.916 271.439H391.762C391.109 271.439 390.58 271.968 390.58 272.62C390.58 273.273 391.109 273.801 391.762 273.801H393.916C394.57 273.801 395.099 273.273 395.099 272.62C395.099 271.968 394.57 271.439 393.916 271.439Z" fill="white"/>
<path d="M418.552 271.439H416.398C415.745 271.439 415.215 271.968 415.215 272.62C415.215 273.273 415.745 273.801 416.398 273.801H418.552C419.205 273.801 419.734 273.273 419.734 272.62C419.734 271.968 419.205 271.439 418.552 271.439Z" fill="white"/>
<path d="M425.532 271.439H423.378C422.725 271.439 422.196 271.968 422.196 272.62C422.196 273.273 422.725 273.801 423.378 273.801H425.532C426.185 273.801 426.715 273.273 426.715 272.62C426.715 271.968 426.185 271.439 425.532 271.439Z" fill="white"/>
<path d="M411.851 271.242H398.463C397.81 271.242 397.281 271.771 397.281 272.423C397.281 273.076 397.81 273.605 398.463 273.605H411.851C412.504 273.605 413.034 273.076 413.034 272.423C413.034 271.771 412.504 271.242 411.851 271.242Z" fill="white"/>
<path d="M444.698 271.242H431.311C430.658 271.242 430.128 271.771 430.128 272.423C430.128 273.076 430.658 273.605 431.311 273.605H444.698C445.352 273.605 445.881 273.076 445.881 272.423C445.881 271.771 445.352 271.242 444.698 271.242Z" fill="white"/>
<path d="M400.486 276.771H398.332C397.679 276.771 397.149 277.3 397.149 277.952C397.149 278.605 397.679 279.133 398.332 279.133H400.486C401.139 279.133 401.668 278.605 401.668 277.952C401.668 277.3 401.139 276.771 400.486 276.771Z" fill="white"/>
<path d="M425.121 276.771H422.967C422.314 276.771 421.785 277.3 421.785 277.952C421.785 278.605 422.314 279.133 422.967 279.133H425.121C425.775 279.133 426.304 278.605 426.304 277.952C426.304 277.3 425.775 276.771 425.121 276.771Z" fill="white"/>
<path d="M432.102 276.771H429.947C429.294 276.771 428.765 277.3 428.765 277.952C428.765 278.605 429.294 279.133 429.947 279.133H432.102C432.755 279.133 433.284 278.605 433.284 277.952C433.284 277.3 432.755 276.771 432.102 276.771Z" fill="white"/>
<path d="M418.42 276.574H405.033C404.38 276.574 403.85 277.103 403.85 277.755C403.85 278.408 404.38 278.936 405.033 278.936H418.42C419.074 278.936 419.603 278.408 419.603 277.755C419.603 277.103 419.074 276.574 418.42 276.574Z" fill="white"/>
<path d="M451.268 276.574H437.88C437.227 276.574 436.698 277.103 436.698 277.755C436.698 278.408 437.227 278.936 437.88 278.936H451.268C451.921 278.936 452.45 278.408 452.45 277.755C452.45 277.103 451.921 276.574 451.268 276.574Z" fill="white"/>
<path d="M407.055 282.103H404.901C404.248 282.103 403.719 282.632 403.719 283.284C403.719 283.936 404.248 284.465 404.901 284.465H407.055C407.708 284.465 408.238 283.936 408.238 283.284C408.238 282.632 407.708 282.103 407.055 282.103Z" fill="white"/>
<path d="M431.691 282.103H429.537C428.884 282.103 428.354 282.632 428.354 283.284C428.354 283.936 428.884 284.465 429.537 284.465H431.691C432.344 284.465 432.873 283.936 432.873 283.284C432.873 282.632 432.344 282.103 431.691 282.103Z" fill="white"/>
<path d="M438.671 282.103H436.517C435.864 282.103 435.334 282.632 435.334 283.284C435.334 283.936 435.864 284.465 436.517 284.465H438.671C439.324 284.465 439.853 283.936 439.853 283.284C439.853 282.632 439.324 282.103 438.671 282.103Z" fill="white"/>
<path d="M424.99 281.906H411.602C410.949 281.906 410.42 282.435 410.42 283.087C410.42 283.739 410.949 284.268 411.602 284.268H424.99C425.643 284.268 426.172 283.739 426.172 283.087C426.172 282.435 425.643 281.906 424.99 281.906Z" fill="white"/>
<path d="M457.837 281.906H444.45C443.797 281.906 443.267 282.435 443.267 283.087C443.267 283.739 443.797 284.268 444.45 284.268H457.837C458.49 284.268 459.02 283.739 459.02 283.087C459.02 282.435 458.49 281.906 457.837 281.906Z" fill="white"/>
<path d="M413.625 287.435H411.471C410.818 287.435 410.288 287.964 410.288 288.616C410.288 289.268 410.818 289.797 411.471 289.797H413.625C414.278 289.797 414.807 289.268 414.807 288.616C414.807 287.964 414.278 287.435 413.625 287.435Z" fill="white"/>
<path d="M438.26 287.435H436.106C435.453 287.435 434.924 287.964 434.924 288.616C434.924 289.268 435.453 289.797 436.106 289.797H438.26C438.913 289.797 439.443 289.268 439.443 288.616C439.443 287.964 438.913 287.435 438.26 287.435Z" fill="white"/>
<path d="M445.24 287.435H443.086C442.433 287.435 441.904 287.964 441.904 288.616C441.904 289.268 442.433 289.797 443.086 289.797H445.24C445.894 289.797 446.423 289.268 446.423 288.616C446.423 287.964 445.894 287.435 445.24 287.435Z" fill="white"/>
<path d="M431.56 287.238H418.172C417.519 287.238 416.989 287.767 416.989 288.419C416.989 289.071 417.519 289.6 418.172 289.6H431.56C432.213 289.6 432.742 289.071 432.742 288.419C432.742 287.767 432.213 287.238 431.56 287.238Z" fill="white"/>
<path d="M418.552 308.636H416.398C415.745 308.636 415.215 309.165 415.215 309.818C415.215 310.47 415.745 310.999 416.398 310.999H418.552C419.205 310.999 419.734 310.47 419.734 309.818C419.734 309.165 419.205 308.636 418.552 308.636Z" fill="white"/>
<path d="M425.532 308.636H423.378C422.725 308.636 422.196 309.165 422.196 309.818C422.196 310.47 422.725 310.999 423.378 310.999H425.532C426.185 310.999 426.715 310.47 426.715 309.818C426.715 309.165 426.185 308.636 425.532 308.636Z" fill="white"/>
<path d="M444.698 308.833H431.311C430.658 308.833 430.128 309.362 430.128 310.015C430.128 310.667 430.658 311.196 431.311 311.196H444.698C445.352 311.196 445.881 310.667 445.881 310.015C445.881 309.362 445.352 308.833 444.698 308.833Z" fill="white"/>
<path d="M393.916 308.636H391.762C391.109 308.636 390.58 309.165 390.58 309.818C390.58 310.47 391.109 310.999 391.762 310.999H393.916C394.57 310.999 395.099 310.47 395.099 309.818C395.099 309.165 394.57 308.636 393.916 308.636Z" fill="white"/>
<path d="M411.851 308.833H398.463C397.81 308.833 397.281 309.362 397.281 310.015C397.281 310.667 397.81 311.196 398.463 311.196H411.851C412.504 311.196 413.034 310.667 413.034 310.015C413.034 309.362 412.504 308.833 411.851 308.833Z" fill="white"/>
<path d="M400.486 303.305H398.332C397.679 303.305 397.149 303.833 397.149 304.486C397.149 305.138 397.679 305.667 398.332 305.667H400.486C401.139 305.667 401.668 305.138 401.668 304.486C401.668 303.833 401.139 303.305 400.486 303.305Z" fill="white"/>
<path d="M425.121 303.305H422.967C422.314 303.305 421.785 303.833 421.785 304.486C421.785 305.138 422.314 305.667 422.967 305.667H425.121C425.775 305.667 426.304 305.138 426.304 304.486C426.304 303.833 425.775 303.305 425.121 303.305Z" fill="white"/>
<path d="M432.102 303.305H429.947C429.294 303.305 428.765 303.833 428.765 304.486C428.765 305.138 429.294 305.667 429.947 305.667H432.102C432.755 305.667 433.284 305.138 433.284 304.486C433.284 303.833 432.755 303.305 432.102 303.305Z" fill="white"/>
<path d="M418.42 303.502H405.033C404.38 303.502 403.85 304.03 403.85 304.683C403.85 305.335 404.38 305.864 405.033 305.864H418.42C419.074 305.864 419.603 305.335 419.603 304.683C419.603 304.03 419.074 303.502 418.42 303.502Z" fill="white"/>
<path d="M407.055 297.973H404.901C404.248 297.973 403.719 298.502 403.719 299.154C403.719 299.806 404.248 300.335 404.901 300.335H407.055C407.708 300.335 408.238 299.806 408.238 299.154C408.238 298.502 407.708 297.973 407.055 297.973Z" fill="white"/>
<path d="M431.691 297.973H429.537C428.884 297.973 428.354 298.502 428.354 299.154C428.354 299.806 428.884 300.335 429.537 300.335H431.691C432.344 300.335 432.873 299.806 432.873 299.154C432.873 298.502 432.344 297.973 431.691 297.973Z" fill="white"/>
<path d="M438.671 297.973H436.517C435.864 297.973 435.334 298.502 435.334 299.154C435.334 299.806 435.864 300.335 436.517 300.335H438.671C439.324 300.335 439.853 299.806 439.853 299.154C439.853 298.502 439.324 297.973 438.671 297.973Z" fill="white"/>
<path d="M424.99 298.17H411.602C410.949 298.17 410.42 298.699 410.42 299.351C410.42 300.003 410.949 300.532 411.602 300.532H424.99C425.643 300.532 426.172 300.003 426.172 299.351C426.172 298.699 425.643 298.17 424.99 298.17Z" fill="white"/>
<path d="M413.625 292.641H411.471C410.818 292.641 410.288 293.17 410.288 293.822C410.288 294.474 410.818 295.003 411.471 295.003H413.625C414.278 295.003 414.807 294.474 414.807 293.822C414.807 293.17 414.278 292.641 413.625 292.641Z" fill="white"/>
<path d="M438.26 292.641H436.106C435.453 292.641 434.924 293.17 434.924 293.822C434.924 294.474 435.453 295.003 436.106 295.003H438.26C438.913 295.003 439.443 294.474 439.443 293.822C439.443 293.17 438.913 292.641 438.26 292.641Z" fill="white"/>
<path d="M445.24 292.641H443.086C442.433 292.641 441.904 293.17 441.904 293.822C441.904 294.474 442.433 295.003 443.086 295.003H445.24C445.894 295.003 446.423 294.474 446.423 293.822C446.423 293.17 445.894 292.641 445.24 292.641Z" fill="white"/>
<path d="M431.56 292.838H418.172C417.519 292.838 416.989 293.367 416.989 294.019C416.989 294.671 417.519 295.2 418.172 295.2H431.56C432.213 295.2 432.742 294.671 432.742 294.019C432.742 293.367 432.213 292.838 431.56 292.838Z" fill="white"/>
<path d="M382.464 371.124L372.352 355.157L404.092 329.883L417.193 315.385C418.895 313.501 421.062 312.097 423.478 311.312C425.894 310.527 428.473 310.389 430.959 310.912C433.445 311.435 435.749 312.601 437.643 314.292C439.536 315.983 440.952 318.142 441.749 320.551C442.93 324.121 442.676 328.01 441.041 331.397C439.406 334.784 436.517 337.404 432.985 338.704L412.269 346.327L382.464 371.124Z" fill="#FFB6B6"/>
<path d="M145.201 255.356V332.958H199.626V255.356C199.627 254.797 199.449 254.254 199.117 253.804C198.786 253.355 198.319 253.023 197.785 252.859C197.534 252.776 197.27 252.735 197.005 252.738H147.83C147.485 252.737 147.143 252.804 146.825 252.935C146.506 253.067 146.216 253.259 145.972 253.502C145.728 253.746 145.534 254.034 145.402 254.352C145.27 254.67 145.202 255.011 145.201 255.356ZM166.441 282.02C166.455 280.49 167.074 279.028 168.162 277.951C169.25 276.874 170.719 276.27 172.251 276.27C173.782 276.27 175.252 276.874 176.34 277.951C177.428 279.028 178.046 280.49 178.061 282.02V291.024C178.053 292.558 177.437 294.027 176.349 295.109C175.26 296.191 173.787 296.798 172.251 296.798C170.715 296.798 169.242 296.191 168.153 295.109C167.064 294.027 166.449 292.558 166.441 291.024V282.02Z" fill="#2F2E41"/>
<path d="M145.035 330.476V337.959C145.036 338.347 145.19 338.718 145.464 338.993C145.737 339.268 146.108 339.424 146.497 339.427H198.331C198.719 339.425 199.091 339.27 199.365 338.995C199.639 338.72 199.793 338.347 199.793 337.959V330.476H145.035Z" fill="#3F3D56"/>
<path d="M59.5833 138.438V280.128C59.5847 281.934 60.3035 283.665 61.5816 284.942C62.8598 286.219 64.593 286.937 66.4006 286.938H276.601C278.409 286.937 280.142 286.219 281.42 284.942C282.698 283.665 283.417 281.934 283.419 280.128V138.438C283.414 136.634 282.694 134.905 281.417 133.63C280.139 132.355 278.407 131.638 276.601 131.635H66.4006C64.5946 131.638 62.863 132.355 61.5853 133.63C60.3075 134.905 59.5876 136.634 59.5833 138.438Z" fill="#3F3D56"/>
<path d="M64.5145 140.201V278.38C64.5162 279.345 64.9006 280.27 65.5835 280.952C66.2664 281.634 67.1922 282.018 68.158 282.02H274.851C275.817 282.018 276.743 281.634 277.426 280.952C278.109 280.27 278.493 279.345 278.495 278.38V140.201C278.495 139.235 278.111 138.308 277.428 137.625C276.745 136.941 275.818 136.556 274.851 136.554H68.158C67.191 136.556 66.2644 136.941 65.5813 137.625C64.8983 138.308 64.5146 139.235 64.5145 140.201Z" fill="white"/>
<path d="M102.873 338.92C103.084 339.184 103.351 339.396 103.655 339.542C103.96 339.687 104.293 339.762 104.631 339.76H227.6C227.936 339.76 228.268 339.684 228.572 339.54C228.875 339.395 229.143 339.185 229.354 338.924C229.566 338.663 229.717 338.358 229.796 338.031C229.875 337.705 229.881 337.365 229.812 337.036L227.903 327.979C227.824 327.61 227.653 327.266 227.407 326.979C227.161 326.692 226.847 326.472 226.494 326.337C226.238 326.237 225.966 326.186 225.691 326.186H106.532C106.257 326.186 105.985 326.237 105.729 326.337C105.376 326.472 105.062 326.692 104.816 326.979C104.57 327.266 104.399 327.61 104.32 327.979L102.411 337.036C102.343 337.365 102.35 337.704 102.429 338.03C102.509 338.356 102.661 338.66 102.873 338.92Z" fill="#2F2E41"/>
<path d="M268.144 155.588H74.7413C74.5403 155.584 74.349 155.501 74.2084 155.358C74.0678 155.214 73.9891 155.021 73.9891 154.82C73.9891 154.619 74.0678 154.426 74.2084 154.283C74.349 154.139 74.5403 154.056 74.7413 154.052H268.144C268.345 154.056 268.536 154.139 268.676 154.283C268.817 154.426 268.896 154.619 268.896 154.82C268.896 155.021 268.817 155.214 268.676 155.358C268.536 155.501 268.345 155.584 268.144 155.588Z" fill="#3F3D56"/>
<path d="M87.9065 150.129C90.3958 150.129 92.4138 148.069 92.4138 145.527C92.4138 142.985 90.3958 140.924 87.9065 140.924C85.4172 140.924 83.3992 142.985 83.3992 145.527C83.3992 148.069 85.4172 150.129 87.9065 150.129Z" fill="#3F3D56"/>
<path d="M103.477 150.129C105.967 150.129 107.985 148.069 107.985 145.527C107.985 142.985 105.967 140.924 103.477 140.924C100.988 140.924 98.9699 142.985 98.9699 145.527C98.9699 148.069 100.988 150.129 103.477 150.129Z" fill="#3F3D56"/>
<path d="M119.048 150.129C121.537 150.129 123.555 148.069 123.555 145.527C123.555 142.985 121.537 140.924 119.048 140.924C116.559 140.924 114.541 142.985 114.541 145.527C114.541 148.069 116.559 150.129 119.048 150.129Z" fill="#3F3D56"/>
<path d="M258.767 142.062H247.708C247.49 142.067 247.282 142.157 247.129 142.314C246.976 142.47 246.89 142.68 246.89 142.898C246.89 143.117 246.976 143.326 247.129 143.483C247.282 143.639 247.49 143.729 247.708 143.734H258.767C258.987 143.731 259.197 143.642 259.352 143.485C259.506 143.329 259.593 143.118 259.593 142.898C259.593 142.678 259.506 142.468 259.352 142.311C259.197 142.155 258.987 142.065 258.767 142.062Z" fill="#3F3D56"/>
<path d="M258.767 145.202H247.708C247.489 145.207 247.281 145.297 247.128 145.454C246.975 145.61 246.889 145.82 246.889 146.038C246.889 146.257 246.975 146.467 247.128 146.623C247.281 146.779 247.489 146.87 247.708 146.874H258.767C258.988 146.872 259.198 146.783 259.353 146.626C259.508 146.469 259.594 146.258 259.594 146.038C259.594 145.818 259.508 145.607 259.353 145.451C259.198 145.294 258.988 145.205 258.767 145.202Z" fill="#3F3D56"/>
<path d="M258.767 148.342H247.708C247.49 148.347 247.282 148.438 247.129 148.594C246.976 148.75 246.89 148.96 246.89 149.178C246.89 149.397 246.976 149.607 247.129 149.763C247.282 149.919 247.49 150.009 247.708 150.014H258.767C258.987 150.011 259.197 149.922 259.352 149.765C259.506 149.609 259.593 149.398 259.593 149.178C259.593 148.959 259.506 148.748 259.352 148.591C259.197 148.435 258.987 148.345 258.767 148.342Z" fill="#3F3D56"/>
<path d="M525.385 333.76C525.718 334.731 526.351 335.571 527.193 336.16C528.034 336.748 529.041 337.056 530.068 337.037L550.135 336.521C551.17 336.501 552.17 336.147 552.987 335.512C553.804 334.877 554.392 333.995 554.666 332.998L557.505 302.666C558.513 303.121 559.61 303.347 560.715 303.324C561.676 303.3 562.623 303.088 563.501 302.698C564.38 302.308 565.172 301.75 565.835 301.054C566.497 300.359 567.016 299.54 567.361 298.644C567.706 297.748 567.872 296.793 567.848 295.833C567.824 294.873 567.61 293.928 567.221 293.05C566.831 292.173 566.271 291.381 565.575 290.719C564.879 290.058 564.059 289.54 563.162 289.195C562.265 288.85 561.309 288.684 560.348 288.709C559.906 288.707 559.465 288.753 559.033 288.845C558.563 288.337 557.992 287.933 557.356 287.659C556.72 287.385 556.033 287.247 555.341 287.254L524.473 288.05C524.217 288.06 523.963 288.091 523.712 288.145C523.035 288.271 522.393 288.54 521.829 288.935C521.265 289.329 520.792 289.84 520.443 290.433C520.093 291.025 519.874 291.686 519.801 292.37C519.729 293.054 519.803 293.745 520.021 294.398L525.385 333.76ZM558.088 300.606L560.108 293.378C560.338 292.543 560.343 291.662 560.124 290.825C560.222 290.824 560.308 290.778 560.406 290.778C561.792 290.749 563.132 291.27 564.133 292.227C565.135 293.185 565.715 294.499 565.748 295.883C565.78 297.267 565.262 298.607 564.306 299.61C563.351 300.613 562.037 301.196 560.651 301.232C559.756 301.26 558.869 301.044 558.088 300.606Z" fill="#2F2E41"/>
<path d="M523.712 288.145C524.37 291.901 531.763 294.541 540.654 294.082C548.829 293.706 555.513 290.838 556.738 287.44C556.285 287.306 555.814 287.243 555.341 287.254L524.473 288.05C524.217 288.06 523.963 288.091 523.712 288.145Z" fill="#3F3D56"/>
<path d="M542.283 317.092C542.324 317.082 542.362 317.065 542.397 317.042L546.755 314.193C546.808 314.159 546.851 314.112 546.881 314.056C546.911 314.001 546.927 313.939 546.927 313.877C546.927 313.814 546.911 313.752 546.881 313.697C546.851 313.641 546.808 313.595 546.755 313.56L542.226 310.597C542.184 310.569 542.138 310.55 542.089 310.541C542.04 310.531 541.989 310.532 541.941 310.542C541.892 310.552 541.845 310.571 541.804 310.599C541.763 310.627 541.728 310.663 541.7 310.705C541.673 310.746 541.654 310.793 541.645 310.842C541.636 310.891 541.636 310.941 541.646 310.99C541.657 311.038 541.677 311.085 541.705 311.126C541.733 311.167 541.769 311.202 541.811 311.229L545.856 313.876L541.983 316.409C541.908 316.458 541.852 316.532 541.827 316.618C541.801 316.704 541.807 316.796 541.843 316.878C541.879 316.96 541.943 317.026 542.024 317.066C542.104 317.105 542.196 317.114 542.283 317.092Z" fill="#6C63FF"/>
<path d="M535.4 317.41C535.473 317.391 535.539 317.351 535.589 317.295C535.639 317.239 535.672 317.169 535.682 317.094C535.692 317.02 535.68 316.944 535.647 316.876C535.614 316.808 535.561 316.752 535.495 316.715L531.478 314.414L535.361 311.533C535.401 311.504 535.434 311.467 535.46 311.424C535.485 311.381 535.502 311.334 535.51 311.285C535.517 311.236 535.514 311.186 535.502 311.138C535.49 311.09 535.469 311.044 535.439 311.004C535.409 310.965 535.372 310.931 535.329 310.906C535.287 310.88 535.24 310.863 535.19 310.856C535.141 310.849 535.091 310.851 535.043 310.863C534.995 310.875 534.949 310.897 534.909 310.927L530.563 314.152C530.512 314.189 530.472 314.239 530.445 314.296C530.418 314.352 530.406 314.415 530.41 314.478C530.414 314.54 530.433 314.601 530.466 314.655C530.499 314.708 530.545 314.752 530.6 314.783L535.118 317.371C535.204 317.42 535.305 317.434 535.4 317.41Z" fill="#6C63FF"/>
<path d="M541.849 319.589C541.886 319.58 541.921 319.565 541.953 319.546C541.996 319.52 542.033 319.486 542.062 319.446C542.092 319.406 542.113 319.36 542.125 319.312C542.136 319.264 542.139 319.214 542.131 319.164C542.123 319.115 542.106 319.068 542.08 319.026L535.903 308.88C535.85 308.795 535.766 308.733 535.668 308.71C535.571 308.686 535.468 308.702 535.382 308.755C535.296 308.807 535.235 308.891 535.211 308.988C535.187 309.086 535.203 309.188 535.255 309.274L541.433 319.42C541.475 319.489 541.538 319.542 541.613 319.573C541.688 319.603 541.771 319.609 541.849 319.589Z" fill="#6C63FF"/>
<path d="M111.946 168H78.4725C77.107 168 76 169.106 76 170.47V173.737C76 175.101 77.107 176.206 78.4725 176.206H111.946C113.312 176.206 114.419 175.101 114.419 173.737V170.47C114.419 169.106 113.312 168 111.946 168Z" fill="#6C63FF"/>
<path d="M150.969 184.206H78.4725C77.107 184.206 76 185.312 76 186.676V189.943C76 191.307 77.107 192.413 78.4725 192.413H150.969C152.335 192.413 153.442 191.307 153.442 189.943V186.676C153.442 185.312 152.335 184.206 150.969 184.206Z" fill="#E6E6E6"/>
<path d="M150.969 200.413H78.4725C77.107 200.413 76 201.519 76 202.883V206.149C76 207.513 77.107 208.619 78.4725 208.619H150.969C152.335 208.619 153.442 207.513 153.442 206.149V202.883C153.442 201.519 152.335 200.413 150.969 200.413Z" fill="#E6E6E6"/>
<path d="M220.208 285.141L220.372 285.659L220.381 285.676L225.323 300.687L231.009 317.985L241.707 350.491L241.81 355.541V355.558L242.605 396.179L240.402 401.686L242.882 410.714C242.882 410.714 241.741 397.067 235.623 404.904C232.158 409.358 228.106 413.916 224.779 418.188C229.627 420.148 234.552 421.92 239.555 423.505C240.635 423.851 241.724 424.179 242.813 424.507C243.046 424.576 243.279 424.645 243.513 424.714C260.098 429.613 277.243 432.366 294.53 432.905C295.428 432.931 296.31 432.948 297.165 432.966C297.468 432.974 297.761 432.983 298.055 432.983C299.023 432.991 299.982 433 300.95 433C302.903 433 304.847 432.971 306.783 432.914C321.109 432.51 335.352 430.586 349.271 427.174C349.176 421.434 348.917 414.727 348.545 407.563C348.372 404.05 344.492 400.243 344.259 396.566C344.095 393.804 347.577 391.206 347.396 388.4C346.221 371.128 344.752 377.759 343.663 365.528C343.55 364.328 343.447 363.18 343.352 362.084C342.652 354.229 342.168 349.317 342.168 349.317L346.817 320.048L354.118 274.093L353.557 273.169L352.926 272.858L314.413 253.817L312.322 248.465C311.712 246.924 310.655 245.599 309.286 244.662C307.917 243.726 306.299 243.219 304.64 243.209L279.27 243.105C277.953 243.099 276.654 243.407 275.48 244.003C274.306 244.599 273.292 245.466 272.521 246.532L265.651 256.035L220.208 285.141Z" fill="#3F3D56"/>
<path d="M247.557 343.258L241.81 355.541L237.888 363.931L231.139 399.226L227.76 402.808L224.865 390.127L194.568 396.846C193.574 391.331 194.302 397.033 193.688 390.982C193.861 390.81 194.043 390.637 194.224 390.464C194.708 390.016 195.114 389.593 195.106 389.187C194.76 368.316 195.797 332.796 204.455 311.278C205.811 307.764 207.599 304.433 209.778 301.36C209.951 301.127 210.115 300.894 210.279 300.661C214.271 295.076 216.795 289.578 220.372 285.668V285.659C220.394 285.641 220.415 285.621 220.433 285.599C220.446 285.592 220.457 285.583 220.467 285.573L245.042 272.556L246.096 302.146L246.848 323.414L247.557 343.258Z" fill="#3F3D56"/>
<path d="M336.17 346.747L343.348 362.088L345.854 367.43L352.6 402.722L355.968 406.295L358.869 393.617L360.233 393.338L384.819 388.252L391.986 410.986C393.601 408.298 394.237 405.135 393.787 402.032C393.337 398.929 391.828 396.077 389.515 393.957C389.026 393.515 388.618 393.084 388.63 392.677C389.038 368.129 387.534 323.304 373.959 304.855C369.648 299.001 367.061 293.169 363.297 289.095C363.286 289.084 363.286 289.072 363.274 289.072L354.115 274.092L353.556 273.172L352.927 272.858L336.17 346.747Z" fill="#3F3D56"/>
<path d="M292.687 235.893C311.328 235.893 326.439 220.798 326.439 202.178C326.439 183.557 311.328 168.463 292.687 168.463C274.047 168.463 258.935 183.557 258.935 202.178C258.935 220.798 274.047 235.893 292.687 235.893Z" fill="#FFB6B6"/>
<path d="M338.307 178.628C338.046 178.349 337.73 178.125 337.38 177.97C337.03 177.816 336.652 177.733 336.27 177.728L336.777 176.32C336.943 175.877 336.987 175.398 336.907 174.931C336.826 174.465 336.622 174.029 336.317 173.667C336.012 173.305 335.616 173.031 335.17 172.872C334.723 172.713 334.243 172.676 333.778 172.764L331.929 173.12L332.103 171.886C332.17 171.427 332.116 170.958 331.947 170.526C331.777 170.094 331.498 169.713 331.136 169.421C330.775 169.13 330.344 168.937 329.885 168.863C329.426 168.788 328.956 168.834 328.521 168.996C328.124 169.152 327.698 169.217 327.274 169.187C326.849 169.157 326.437 169.032 326.066 168.822C325.695 168.618 325.372 168.336 325.121 167.995C324.87 167.654 324.696 167.262 324.612 166.847L323.968 163.745L323.9 163.578C320.764 158.357 314.734 154.559 307.357 153.167C300.789 151.918 294.055 152.554 287.564 153.151C284.988 153.394 282.08 153.666 279.656 155.149C277.595 156.42 275.853 158.963 276.209 161.528C269.808 159.568 262.946 163.48 259.545 168.413C255.515 174.285 254.856 181.639 254.75 187.39C254.462 200.995 257.272 212.125 263.082 220.478C263.506 221.084 263.612 222.347 264.453 222.771L264.279 222.491C265.218 222.96 266.172 223.717 265.816 224.526C264.794 226.857 271.588 232.01 276.376 233.712C285.109 236.822 296.722 236.557 304.887 235.437L305.175 233.508C308.122 233.107 310.197 232.343 310.78 231.147C311.811 230.269 312.689 229.483 313.454 228.756L313.462 228.749C313.477 228.733 313.507 228.711 313.522 228.696C317.211 225.162 318.067 223.149 318.454 220.085C318.825 217.081 318.166 214.032 317.492 211.285C331.687 213.479 311.901 196.182 325.127 192.838C325.279 192.791 325.433 192.753 325.589 192.724C325.975 192.634 326.362 192.543 326.733 192.437C328.522 191.952 330.235 191.221 331.823 190.265C335.52 188.018 336.739 185.037 338.648 181.677C338.924 181.199 339.039 180.645 338.978 180.097C338.916 179.548 338.682 179.034 338.307 178.628Z" fill="#2F2E41"/>
<path d="M412.063 349.147C412.055 350.471 412.04 352.325 411.98 354.618C411.972 354.936 411.965 355.261 411.957 355.594C411.858 359.808 411.76 363.342 411.601 367.269C411.593 367.541 411.586 367.806 411.571 368.079C411.359 373.557 411.025 379.935 410.45 390.037C409.382 408.696 407.518 392.602 405.647 399.147C405.556 399.472 405.458 399.858 405.367 400.312C405.084 401.959 404.606 403.567 403.943 405.102C402.951 405.692 401.928 406.259 400.92 406.827C398.05 408.423 395.133 409.959 392.194 411.42C390.543 412.237 388.884 413.039 387.218 413.811C386.953 413.932 386.695 414.053 386.438 414.166C377.904 418.109 369.109 421.461 360.115 424.199C358.358 424.729 356.608 425.244 354.835 425.72C352.987 426.235 351.139 426.719 349.268 427.173C335.349 430.586 321.107 432.511 306.781 432.916C304.849 432.977 302.903 432.999 300.948 432.999C299.979 432.999 299.024 432.992 298.055 432.984C297.759 432.984 297.464 432.977 297.169 432.969C296.313 432.946 295.426 432.931 294.533 432.908C277.246 432.37 260.1 429.616 243.516 424.714L242.812 424.51C241.721 424.177 240.638 423.851 239.555 423.503C234.555 421.922 229.629 420.151 224.776 418.192C221.072 416.701 217.411 415.102 213.793 413.394C213.76 413.386 213.729 413.37 213.702 413.349C212.944 413.001 212.179 412.638 211.422 412.267C211.323 412.214 211.217 412.161 211.111 412.108C208.286 410.731 205.491 409.288 202.726 407.78C200.401 402.446 197.128 401.424 195.098 396.733C194.507 395.339 194.08 393.882 193.826 392.39C193.826 392.375 193.818 392.359 193.818 392.337C194.03 395.152 192.917 387.343 193.81 392.307C193.803 392.216 193.795 392.117 193.788 392.004C193.765 391.731 193.735 391.399 193.689 390.982C191.091 365.642 191.258 336.662 190.129 312.782C190.053 311.239 189.975 309.761 189.894 308.348C189.872 307.879 189.841 307.418 189.811 306.964C189.864 306.828 189.925 306.684 189.993 306.548C190.007 306.508 190.025 306.47 190.046 306.434C190.068 306.387 190.093 306.342 190.122 306.298C190.137 306.275 190.159 306.245 190.175 306.222C190.186 306.196 190.198 306.171 190.212 306.147C190.281 306.041 190.356 305.927 190.44 305.821C190.478 305.776 190.508 305.738 190.546 305.7C190.572 305.661 190.602 305.626 190.637 305.594C190.66 305.558 190.688 305.525 190.72 305.496C190.75 305.466 190.781 305.428 190.818 305.39C190.835 305.366 190.855 305.346 190.879 305.329C190.939 305.261 191.005 305.197 191.076 305.14C191.346 304.892 191.635 304.664 191.939 304.459C192.045 304.391 192.159 304.323 192.265 304.247C193.029 303.791 193.832 303.406 194.666 303.097C194.954 302.991 195.242 302.893 195.553 302.787C195.666 302.757 195.772 302.719 195.886 302.681C196.053 302.628 196.219 302.575 196.393 302.537C197.257 302.28 198.189 302.061 199.196 301.856C199.317 301.834 199.446 301.811 199.575 301.781C199.757 301.743 199.946 301.713 200.135 301.682C200.393 301.637 200.658 301.592 200.923 301.546C203.173 301.191 205.726 300.926 208.543 300.752C208.809 300.737 209.074 300.721 209.339 300.706C209.649 300.691 209.96 300.676 210.278 300.661C210.543 300.646 210.816 300.638 211.089 300.631C211.354 300.615 211.626 300.608 211.907 300.6C212.672 300.578 213.459 300.555 214.262 300.54C216.55 300.494 218.959 300.51 221.489 300.563C222.663 300.593 223.86 300.623 225.087 300.676C225.17 300.676 225.246 300.684 225.322 300.684C226.39 300.721 227.465 300.767 228.571 300.827C229.344 300.865 230.124 300.903 230.904 300.948C231.639 300.994 232.381 301.039 233.131 301.092C233.714 301.122 234.298 301.168 234.889 301.206C235.388 301.244 235.888 301.281 236.388 301.312L237.07 301.357C237.441 301.387 237.812 301.41 238.191 301.448C239.024 301.516 239.858 301.584 240.706 301.652C241.547 301.728 242.403 301.803 243.259 301.879C244.115 301.955 244.978 302.038 245.842 302.121C245.933 302.129 246.016 302.136 246.099 302.144C246.887 302.227 247.675 302.303 248.47 302.386C248.652 302.401 248.841 302.416 249.023 302.439C249.781 302.515 250.555 302.604 251.32 302.685C251.555 302.711 251.788 302.735 252.024 302.761C252.623 302.826 253.214 302.883 253.818 302.954C254.613 303.044 255.424 303.128 256.212 303.233C256.825 303.302 257.439 303.37 258.052 303.445C259.014 303.559 259.991 303.68 260.968 303.809C261.34 303.854 261.711 303.899 262.082 303.952C264.87 304.3 267.687 304.686 270.551 305.087C274.891 305.7 279.299 306.366 283.738 307.085C288.185 307.804 292.656 308.563 297.153 309.362C298.29 309.567 299.426 309.771 300.57 309.983C301.085 310.081 301.6 310.179 302.115 310.278C302.993 310.437 303.872 310.603 304.751 310.77C305.629 310.936 306.508 311.103 307.387 311.277C308.432 311.481 309.485 311.685 310.53 311.89C317.416 313.252 324.263 314.704 330.944 316.225C332.043 316.475 333.141 316.732 334.232 316.982C336.413 317.489 338.575 318.003 340.716 318.525C341.307 318.662 341.89 318.805 342.473 318.949C343.928 319.312 345.382 319.676 346.814 320.046L347.064 320.114C348.117 320.372 349.147 320.636 350.177 320.909C352.608 321.544 354.999 322.188 357.35 322.838C358.911 323.27 360.453 323.706 361.978 324.147C364.258 324.806 366.493 325.471 368.667 326.145C369.205 326.311 369.743 326.478 370.273 326.637C371.863 327.129 373.431 327.628 374.954 328.127C376.166 328.521 377.348 328.922 378.514 329.323C379.681 329.724 380.824 330.125 381.946 330.526C382.665 330.783 383.377 331.056 384.089 331.313C385.112 331.691 386.119 332.069 387.104 332.448C387.407 332.561 387.702 332.682 387.998 332.796C388.187 332.879 388.369 332.947 388.551 333.023C388.907 333.167 389.27 333.303 389.619 333.447C389.975 333.583 390.323 333.727 390.672 333.878C391.013 334.014 391.361 334.158 391.694 334.302C392.035 334.438 392.368 334.582 392.702 334.733C392.982 334.846 393.255 334.967 393.52 335.089C394.058 335.323 394.595 335.558 395.118 335.8C395.376 335.921 395.633 336.034 395.891 336.155L396.482 336.428C396.565 336.473 396.648 336.511 396.732 336.549C396.921 336.64 397.118 336.738 397.307 336.829C397.747 337.033 398.178 337.253 398.603 337.457C399.171 337.744 399.724 338.032 400.254 338.312C400.792 338.599 401.314 338.887 401.814 339.167C401.898 339.212 401.973 339.258 402.057 339.303C402.17 339.364 402.284 339.432 402.398 339.492C402.784 339.712 403.155 339.939 403.526 340.158C404.253 340.604 404.943 341.043 405.586 341.482C405.73 341.581 405.867 341.679 406.011 341.77C406.488 342.11 406.942 342.443 407.367 342.784C407.367 342.791 407.367 342.791 407.374 342.791C407.518 342.897 407.654 343.011 407.791 343.117C407.904 343.222 408.026 343.313 408.139 343.419C408.533 343.76 408.897 344.085 409.23 344.418C409.342 344.521 409.448 344.629 409.548 344.743C409.592 344.78 409.633 344.82 409.669 344.864C409.821 345.016 409.957 345.167 410.086 345.318C410.106 345.339 410.124 345.362 410.139 345.387C410.321 345.598 410.487 345.81 410.646 346.022C410.722 346.128 410.806 346.234 410.874 346.34C410.965 346.469 411.055 346.605 411.131 346.733C411.199 346.839 411.26 346.953 411.321 347.059C411.481 347.331 411.618 347.618 411.73 347.914C411.815 348.115 411.883 348.322 411.934 348.534C411.992 348.735 412.035 348.94 412.063 349.147Z" fill="#2F2E41"/>
<path opacity="0.2" d="M412.063 349.147C412.055 350.471 412.04 352.325 411.98 354.618C411.972 354.935 411.957 355.261 411.949 355.594C411.874 358.809 411.76 362.782 411.601 367.269C411.593 367.541 411.586 367.806 411.571 368.078C411.359 373.557 411.025 379.935 410.45 390.037C409.382 408.696 407.518 392.602 405.647 399.147C400.451 395.954 394.755 392.609 388.664 389.174C387.566 388.553 386.458 387.931 385.339 387.305C373.159 380.518 359.555 373.405 345.352 366.361C344.791 366.081 344.223 365.801 343.663 365.529C311.129 349.465 275.618 333.84 246.849 323.413C241.297 321.401 235.994 319.585 231.01 317.988C220.512 314.636 211.437 312.291 204.453 311.277C197.181 310.217 192.159 310.596 190.129 312.782C190.053 311.239 189.975 309.761 189.894 308.348C189.864 307.879 189.834 307.418 189.803 306.964C189.85 306.839 189.911 306.72 189.97 306.6C189.978 306.583 189.984 306.565 189.993 306.548C190.007 306.508 190.025 306.47 190.046 306.434C190.068 306.387 190.093 306.342 190.121 306.298C190.146 306.244 190.177 306.193 190.212 306.146C190.281 306.041 190.356 305.927 190.44 305.821C190.501 305.742 190.567 305.666 190.637 305.594C190.66 305.558 190.688 305.525 190.72 305.496C190.75 305.465 190.78 305.428 190.818 305.39C190.835 305.366 190.855 305.345 190.879 305.329C190.939 305.261 191.005 305.197 191.076 305.14C191.346 304.892 191.635 304.664 191.939 304.459C192.045 304.391 192.159 304.323 192.265 304.247C193.029 303.791 193.832 303.406 194.666 303.097C194.954 302.991 195.242 302.893 195.553 302.787C195.666 302.757 195.772 302.719 195.886 302.681C196.053 302.628 196.219 302.575 196.393 302.537C197.257 302.28 198.189 302.061 199.196 301.856C199.499 301.796 199.817 301.735 200.135 301.682C200.393 301.637 200.658 301.591 200.923 301.546C203.173 301.19 205.726 300.926 208.543 300.752C208.809 300.736 209.074 300.721 209.339 300.706C209.649 300.691 209.96 300.676 210.278 300.661C210.543 300.646 210.816 300.638 211.089 300.63C211.354 300.615 211.626 300.608 211.907 300.6C212.672 300.578 213.459 300.555 214.262 300.54C216.55 300.502 218.959 300.517 221.489 300.57C222.663 300.593 223.86 300.63 225.087 300.683C225.163 300.683 225.246 300.691 225.322 300.691C226.39 300.721 227.473 300.774 228.571 300.827C229.344 300.865 230.124 300.903 230.904 300.948C231.639 300.994 232.381 301.039 233.131 301.092C233.714 301.122 234.298 301.168 234.888 301.206C235.388 301.243 235.888 301.281 236.388 301.311C236.987 301.357 237.585 301.402 238.191 301.448C239.024 301.516 239.858 301.584 240.706 301.652C241.547 301.728 242.403 301.803 243.259 301.879C244.115 301.955 244.978 302.038 245.842 302.121C245.933 302.129 246.016 302.136 246.099 302.144C246.887 302.227 247.675 302.303 248.47 302.386C252.879 302.832 257.416 303.354 262.082 303.952C264.87 304.308 267.692 304.689 270.551 305.095C274.891 305.708 279.3 306.373 283.738 307.085C288.185 307.804 292.656 308.563 297.153 309.362C298.29 309.567 299.426 309.771 300.57 309.983C301.963 310.24 303.357 310.502 304.751 310.77C305.63 310.936 306.508 311.103 307.387 311.277C308.432 311.481 309.485 311.685 310.53 311.889C317.416 313.251 324.263 314.704 330.945 316.225C332.043 316.475 333.141 316.732 334.232 316.982C336.413 317.489 338.575 318.003 340.716 318.525C341.307 318.669 341.89 318.813 342.473 318.957C343.935 319.32 345.382 319.683 346.814 320.046V320.054C346.897 320.069 346.98 320.092 347.064 320.114C348.109 320.379 349.147 320.644 350.177 320.916C352.608 321.552 355 322.193 357.35 322.838C358.911 323.277 360.456 323.708 361.978 324.147C364.258 324.813 366.493 325.479 368.667 326.145C369.205 326.311 369.743 326.478 370.273 326.637C371.864 327.136 373.424 327.633 374.954 328.127C376.166 328.521 377.348 328.922 378.514 329.323C379.681 329.724 380.824 330.125 381.946 330.526C382.673 330.783 383.385 331.048 384.089 331.305C385.119 331.683 386.119 332.062 387.104 332.448C387.407 332.561 387.702 332.682 387.998 332.796C388.551 333.008 389.089 333.227 389.619 333.446C389.975 333.583 390.323 333.726 390.672 333.878C391.013 334.014 391.361 334.158 391.694 334.302C392.035 334.438 392.368 334.581 392.702 334.733C392.982 334.846 393.255 334.967 393.52 335.088C394.058 335.323 394.595 335.558 395.118 335.8C395.376 335.921 395.633 336.034 395.891 336.155L396.482 336.428C396.565 336.473 396.648 336.511 396.732 336.549C397.375 336.851 397.997 337.154 398.603 337.457C399.171 337.744 399.724 338.032 400.254 338.312C400.883 338.645 401.481 338.97 402.057 339.303C402.17 339.363 402.284 339.432 402.398 339.492C402.784 339.712 403.155 339.939 403.526 340.158C404.253 340.604 404.943 341.043 405.587 341.482C406.223 341.921 406.814 342.352 407.367 342.784C407.367 342.791 407.367 342.791 407.374 342.791C407.639 343.003 407.897 343.215 408.139 343.419C408.533 343.76 408.897 344.085 409.23 344.418C409.342 344.521 409.448 344.629 409.548 344.743C409.592 344.78 409.633 344.82 409.669 344.864C409.828 345.038 409.987 345.212 410.139 345.386C410.321 345.598 410.487 345.81 410.647 346.022C410.722 346.128 410.806 346.234 410.874 346.34C410.965 346.468 411.056 346.605 411.131 346.733C411.199 346.839 411.26 346.953 411.321 347.059C411.481 347.331 411.618 347.617 411.73 347.914C411.813 348.115 411.881 348.323 411.934 348.534C411.992 348.735 412.035 348.94 412.063 349.147Z" fill="black"/>
</g>
<defs>
<clipPath id="clip0_16_119">
<rect width="596" height="433" fill="white"/>
</clipPath>
</defs>
</svg>
