<svg width="364" height="364" viewBox="0 0 364 364" fill="none" xmlns="http://www.w3.org/2000/svg">
<circle cx="4" cy="4" r="4" fill="#FFAFAF"/>
<circle cx="4" cy="36.3214" r="4" fill="#FFAFAF"/>
<circle cx="4" cy="68.6429" r="4" fill="#FFAFAF"/>
<circle cx="4" cy="100.964" r="4" fill="#FFAFAF"/>
<circle cx="4" cy="133.286" r="4" fill="#FFAFAF"/>
<circle cx="4" cy="165.607" r="4" fill="#FFAFAF"/>
<circle cx="4" cy="197.929" r="4" fill="#FFAFAF"/>
<circle cx="4" cy="230.25" r="4" fill="#FFAFAF"/>
<circle cx="4" cy="262.571" r="4" fill="#FFAFAF"/>
<circle cx="4" cy="294.893" r="4" fill="#FFAFAF"/>
<circle cx="4" cy="327.214" r="4" fill="#FFAFAF"/>
<circle cx="4" cy="359.536" r="4" fill="#FFAFAF"/>
<circle cx="36.3214" cy="4" r="4" fill="#FFAFAF"/>
<circle cx="36.3214" cy="36.3214" r="4" fill="#FFAFAF"/>
<circle cx="36.3214" cy="68.6429" r="4" fill="#FFAFAF"/>
<circle cx="36.3214" cy="100.964" r="4" fill="#FFAFAF"/>
<circle cx="36.3214" cy="133.286" r="4" fill="#FFAFAF"/>
<circle cx="36.3214" cy="165.607" r="4" fill="#FFAFAF"/>
<circle cx="36.3214" cy="197.929" r="4" fill="#FFAFAF"/>
<circle cx="36.3214" cy="230.25" r="4" fill="#FFAFAF"/>
<circle cx="36.3214" cy="262.571" r="4" fill="#FFAFAF"/>
<circle cx="36.3214" cy="294.893" r="4" fill="#FFAFAF"/>
<circle cx="36.3214" cy="327.214" r="4" fill="#FFAFAF"/>
<circle cx="36.3214" cy="359.536" r="4" fill="#FFAFAF"/>
<circle cx="68.6429" cy="4" r="4" fill="#FFAFAF"/>
<circle cx="68.6429" cy="36.3214" r="4" fill="#FFAFAF"/>
<circle cx="68.6429" cy="68.6429" r="4" fill="#FFAFAF"/>
<circle cx="68.6429" cy="100.964" r="4" fill="#FFAFAF"/>
<circle cx="68.6429" cy="133.286" r="4" fill="#FFAFAF"/>
<circle cx="68.6429" cy="165.607" r="4" fill="#FFAFAF"/>
<circle cx="68.6429" cy="197.929" r="4" fill="#FFAFAF"/>
<circle cx="68.6429" cy="230.25" r="4" fill="#FFAFAF"/>
<circle cx="68.6429" cy="262.571" r="4" fill="#FFAFAF"/>
<circle cx="68.6429" cy="294.893" r="4" fill="#FFAFAF"/>
<circle cx="68.6429" cy="327.214" r="4" fill="#FFAFAF"/>
<circle cx="68.6429" cy="359.536" r="4" fill="#FFAFAF"/>
<circle cx="100.964" cy="4" r="4" fill="#FFAFAF"/>
<circle cx="100.964" cy="36.3214" r="4" fill="#FFAFAF"/>
<circle cx="100.964" cy="68.6429" r="4" fill="#FFAFAF"/>
<circle cx="100.964" cy="100.964" r="4" fill="#FFAFAF"/>
<circle cx="100.964" cy="133.286" r="4" fill="#FFAFAF"/>
<circle cx="100.964" cy="165.607" r="4" fill="#FFAFAF"/>
<circle cx="100.964" cy="197.929" r="4" fill="#FFAFAF"/>
<circle cx="100.964" cy="230.25" r="4" fill="#FFAFAF"/>
<circle cx="100.964" cy="262.571" r="4" fill="#FFAFAF"/>
<circle cx="100.964" cy="294.893" r="4" fill="#FFAFAF"/>
<circle cx="100.964" cy="327.214" r="4" fill="#FFAFAF"/>
<circle cx="100.964" cy="359.536" r="4" fill="#FFAFAF"/>
<circle cx="133.286" cy="4" r="4" fill="#FFAFAF"/>
<circle cx="133.286" cy="36.3214" r="4" fill="#FFAFAF"/>
<circle cx="133.286" cy="68.6429" r="4" fill="#FFAFAF"/>
<circle cx="133.286" cy="100.964" r="4" fill="#FFAFAF"/>
<circle cx="133.286" cy="133.286" r="4" fill="#FFAFAF"/>
<circle cx="133.286" cy="165.607" r="4" fill="#FFAFAF"/>
<circle cx="133.286" cy="197.929" r="4" fill="#FFAFAF"/>
<circle cx="133.286" cy="230.25" r="4" fill="#FFAFAF"/>
<circle cx="133.286" cy="262.571" r="4" fill="#FFAFAF"/>
<circle cx="133.286" cy="294.893" r="4" fill="#FFAFAF"/>
<circle cx="133.286" cy="327.214" r="4" fill="#FFAFAF"/>
<circle cx="133.286" cy="359.536" r="4" fill="#FFAFAF"/>
<circle cx="165.607" cy="4" r="4" fill="#FFAFAF"/>
<circle cx="165.607" cy="36.3214" r="4" fill="#FFAFAF"/>
<circle cx="165.607" cy="68.6429" r="4" fill="#FFAFAF"/>
<circle cx="165.607" cy="100.964" r="4" fill="#FFAFAF"/>
<circle cx="165.607" cy="133.286" r="4" fill="#FFAFAF"/>
<circle cx="165.607" cy="165.607" r="4" fill="#FFAFAF"/>
<circle cx="165.607" cy="197.929" r="4" fill="#FFAFAF"/>
<circle cx="165.607" cy="230.25" r="4" fill="#FFAFAF"/>
<circle cx="165.607" cy="262.571" r="4" fill="#FFAFAF"/>
<circle cx="165.607" cy="294.893" r="4" fill="#FFAFAF"/>
<circle cx="165.607" cy="327.214" r="4" fill="#FFAFAF"/>
<circle cx="165.607" cy="359.536" r="4" fill="#FFAFAF"/>
<circle cx="197.929" cy="4" r="4" fill="#FFAFAF"/>
<circle cx="197.929" cy="36.3214" r="4" fill="#FFAFAF"/>
<circle cx="197.929" cy="68.6429" r="4" fill="#FFAFAF"/>
<circle cx="197.929" cy="100.964" r="4" fill="#FFAFAF"/>
<circle cx="197.929" cy="133.286" r="4" fill="#FFAFAF"/>
<circle cx="197.929" cy="165.607" r="4" fill="#FFAFAF"/>
<circle cx="197.929" cy="197.929" r="4" fill="#FFAFAF"/>
<circle cx="197.929" cy="230.25" r="4" fill="#FFAFAF"/>
<circle cx="197.929" cy="262.571" r="4" fill="#FFAFAF"/>
<circle cx="197.929" cy="294.893" r="4" fill="#FFAFAF"/>
<circle cx="197.929" cy="327.214" r="4" fill="#FFAFAF"/>
<circle cx="197.929" cy="359.536" r="4" fill="#FFAFAF"/>
<circle cx="230.25" cy="4" r="4" fill="#FFAFAF"/>
<circle cx="230.25" cy="36.3214" r="4" fill="#FFAFAF"/>
<circle cx="230.25" cy="68.6429" r="4" fill="#FFAFAF"/>
<circle cx="230.25" cy="100.964" r="4" fill="#FFAFAF"/>
<circle cx="230.25" cy="133.286" r="4" fill="#FFAFAF"/>
<circle cx="230.25" cy="165.607" r="4" fill="#FFAFAF"/>
<circle cx="230.25" cy="197.929" r="4" fill="#FFAFAF"/>
<circle cx="230.25" cy="230.25" r="4" fill="#FFAFAF"/>
<circle cx="230.25" cy="262.571" r="4" fill="#FFAFAF"/>
<circle cx="230.25" cy="294.893" r="4" fill="#FFAFAF"/>
<circle cx="230.25" cy="327.214" r="4" fill="#FFAFAF"/>
<circle cx="230.25" cy="359.536" r="4" fill="#FFAFAF"/>
<circle cx="262.571" cy="4" r="4" fill="#FFAFAF"/>
<circle cx="262.571" cy="36.3214" r="4" fill="#FFAFAF"/>
<circle cx="262.571" cy="68.6429" r="4" fill="#FFAFAF"/>
<circle cx="262.571" cy="100.964" r="4" fill="#FFAFAF"/>
<circle cx="262.571" cy="133.286" r="4" fill="#FFAFAF"/>
<circle cx="262.571" cy="165.607" r="4" fill="#FFAFAF"/>
<circle cx="262.571" cy="197.929" r="4" fill="#FFAFAF"/>
<circle cx="262.571" cy="230.25" r="4" fill="#FFAFAF"/>
<circle cx="262.571" cy="262.571" r="4" fill="#FFAFAF"/>
<circle cx="262.571" cy="294.893" r="4" fill="#FFAFAF"/>
<circle cx="262.571" cy="327.214" r="4" fill="#FFAFAF"/>
<circle cx="262.571" cy="359.536" r="4" fill="#FFAFAF"/>
<circle cx="294.893" cy="4" r="4" fill="#FFAFAF"/>
<circle cx="294.893" cy="36.3214" r="4" fill="#FFAFAF"/>
<circle cx="294.893" cy="68.6429" r="4" fill="#FFAFAF"/>
<circle cx="294.893" cy="100.964" r="4" fill="#FFAFAF"/>
<circle cx="294.893" cy="133.286" r="4" fill="#FFAFAF"/>
<circle cx="294.893" cy="165.607" r="4" fill="#FFAFAF"/>
<circle cx="294.893" cy="197.929" r="4" fill="#FFAFAF"/>
<circle cx="294.893" cy="230.25" r="4" fill="#FFAFAF"/>
<circle cx="294.893" cy="262.571" r="4" fill="#FFAFAF"/>
<circle cx="294.893" cy="294.893" r="4" fill="#FFAFAF"/>
<circle cx="294.893" cy="327.214" r="4" fill="#FFAFAF"/>
<circle cx="294.893" cy="359.536" r="4" fill="#FFAFAF"/>
<circle cx="327.214" cy="4" r="4" fill="#FFAFAF"/>
<circle cx="327.214" cy="36.3214" r="4" fill="#FFAFAF"/>
<circle cx="327.214" cy="68.6429" r="4" fill="#FFAFAF"/>
<circle cx="327.214" cy="100.964" r="4" fill="#FFAFAF"/>
<circle cx="327.214" cy="133.286" r="4" fill="#FFAFAF"/>
<circle cx="327.214" cy="165.607" r="4" fill="#FFAFAF"/>
<circle cx="327.214" cy="197.929" r="4" fill="#FFAFAF"/>
<circle cx="327.214" cy="230.25" r="4" fill="#FFAFAF"/>
<circle cx="327.214" cy="262.571" r="4" fill="#FFAFAF"/>
<circle cx="327.214" cy="294.893" r="4" fill="#FFAFAF"/>
<circle cx="327.214" cy="327.214" r="4" fill="#FFAFAF"/>
<circle cx="327.214" cy="359.536" r="4" fill="#FFAFAF"/>
<circle cx="359.536" cy="4" r="4" fill="#FFAFAF"/>
<circle cx="359.536" cy="36.3214" r="4" fill="#FFAFAF"/>
<circle cx="359.536" cy="68.6429" r="4" fill="#FFAFAF"/>
<circle cx="359.536" cy="100.964" r="4" fill="#FFAFAF"/>
<circle cx="359.536" cy="133.286" r="4" fill="#FFAFAF"/>
<circle cx="359.536" cy="165.607" r="4" fill="#FFAFAF"/>
<circle cx="359.536" cy="197.929" r="4" fill="#FFAFAF"/>
<circle cx="359.536" cy="230.25" r="4" fill="#FFAFAF"/>
<circle cx="359.536" cy="262.571" r="4" fill="#FFAFAF"/>
<circle cx="359.536" cy="294.893" r="4" fill="#FFAFAF"/>
<circle cx="359.536" cy="327.214" r="4" fill="#FFAFAF"/>
<circle cx="359.536" cy="359.536" r="4" fill="#FFAFAF"/>
</svg>
