<svg width="145" height="144" viewBox="0 0 145 144" fill="none" xmlns="http://www.w3.org/2000/svg">
<circle cx="2.06591" cy="1.58444" r="1.58444" fill="#FFAFAF"/>
<circle cx="2.06591" cy="14.3873" r="1.58444" fill="#FFAFAF"/>
<circle cx="2.06591" cy="27.19" r="1.58444" fill="#FFAFAF"/>
<circle cx="2.06591" cy="39.9929" r="1.58444" fill="#FFAFAF"/>
<circle cx="2.06591" cy="52.7957" r="1.58444" fill="#FFAFAF"/>
<circle cx="2.06591" cy="65.5986" r="1.58444" fill="#FFAFAF"/>
<circle cx="2.06591" cy="78.4015" r="1.58444" fill="#FFAFAF"/>
<circle cx="2.06591" cy="91.2042" r="1.58444" fill="#FFAFAF"/>
<circle cx="2.06591" cy="104.007" r="1.58444" fill="#FFAFAF"/>
<circle cx="2.06591" cy="116.81" r="1.58444" fill="#FFAFAF"/>
<circle cx="2.06591" cy="129.613" r="1.58444" fill="#FFAFAF"/>
<circle cx="2.06591" cy="142.415" r="1.58444" fill="#FFAFAF"/>
<circle cx="14.8687" cy="1.58444" r="1.58444" fill="#FFAFAF"/>
<circle cx="14.8687" cy="14.3873" r="1.58444" fill="#FFAFAF"/>
<circle cx="14.8687" cy="27.19" r="1.58444" fill="#FFAFAF"/>
<circle cx="14.8687" cy="39.9929" r="1.58444" fill="#FFAFAF"/>
<circle cx="14.8687" cy="52.7957" r="1.58444" fill="#FFAFAF"/>
<circle cx="14.8687" cy="65.5986" r="1.58444" fill="#FFAFAF"/>
<circle cx="14.8687" cy="78.4015" r="1.58444" fill="#FFAFAF"/>
<circle cx="14.8687" cy="91.2042" r="1.58444" fill="#FFAFAF"/>
<circle cx="14.8687" cy="104.007" r="1.58444" fill="#FFAFAF"/>
<circle cx="14.8687" cy="116.81" r="1.58444" fill="#FFAFAF"/>
<circle cx="14.8687" cy="129.613" r="1.58444" fill="#FFAFAF"/>
<circle cx="14.8687" cy="142.415" r="1.58444" fill="#FFAFAF"/>
<circle cx="27.6716" cy="1.58444" r="1.58444" fill="#FFAFAF"/>
<circle cx="27.6716" cy="14.3873" r="1.58444" fill="#FFAFAF"/>
<circle cx="27.6716" cy="27.19" r="1.58444" fill="#FFAFAF"/>
<circle cx="27.6716" cy="39.9929" r="1.58444" fill="#FFAFAF"/>
<circle cx="27.6716" cy="52.7957" r="1.58444" fill="#FFAFAF"/>
<circle cx="27.6716" cy="65.5986" r="1.58444" fill="#FFAFAF"/>
<circle cx="27.6716" cy="78.4015" r="1.58444" fill="#FFAFAF"/>
<circle cx="27.6716" cy="91.2042" r="1.58444" fill="#FFAFAF"/>
<circle cx="27.6716" cy="104.007" r="1.58444" fill="#FFAFAF"/>
<circle cx="27.6716" cy="116.81" r="1.58444" fill="#FFAFAF"/>
<circle cx="27.6716" cy="129.613" r="1.58444" fill="#FFAFAF"/>
<circle cx="27.6716" cy="142.415" r="1.58444" fill="#FFAFAF"/>
<circle cx="40.4744" cy="1.58444" r="1.58444" fill="#FFAFAF"/>
<circle cx="40.4744" cy="14.3873" r="1.58444" fill="#FFAFAF"/>
<circle cx="40.4744" cy="27.19" r="1.58444" fill="#FFAFAF"/>
<circle cx="40.4744" cy="39.9929" r="1.58444" fill="#FFAFAF"/>
<circle cx="40.4744" cy="52.7957" r="1.58444" fill="#FFAFAF"/>
<circle cx="40.4744" cy="65.5986" r="1.58444" fill="#FFAFAF"/>
<circle cx="40.4744" cy="78.4015" r="1.58444" fill="#FFAFAF"/>
<circle cx="40.4744" cy="91.2042" r="1.58444" fill="#FFAFAF"/>
<circle cx="40.4744" cy="104.007" r="1.58444" fill="#FFAFAF"/>
<circle cx="40.4744" cy="116.81" r="1.58444" fill="#FFAFAF"/>
<circle cx="40.4744" cy="129.613" r="1.58444" fill="#FFAFAF"/>
<circle cx="40.4744" cy="142.415" r="1.58444" fill="#FFAFAF"/>
<circle cx="53.2772" cy="1.58444" r="1.58444" fill="#FFAFAF"/>
<circle cx="53.2772" cy="14.3873" r="1.58444" fill="#FFAFAF"/>
<circle cx="53.2772" cy="27.19" r="1.58444" fill="#FFAFAF"/>
<circle cx="53.2772" cy="39.9929" r="1.58444" fill="#FFAFAF"/>
<circle cx="53.2772" cy="52.7957" r="1.58444" fill="#FFAFAF"/>
<circle cx="53.2772" cy="65.5986" r="1.58444" fill="#FFAFAF"/>
<circle cx="53.2772" cy="78.4015" r="1.58444" fill="#FFAFAF"/>
<circle cx="53.2772" cy="91.2042" r="1.58444" fill="#FFAFAF"/>
<circle cx="53.2772" cy="104.007" r="1.58444" fill="#FFAFAF"/>
<circle cx="53.2772" cy="116.81" r="1.58444" fill="#FFAFAF"/>
<circle cx="53.2772" cy="129.613" r="1.58444" fill="#FFAFAF"/>
<circle cx="53.2772" cy="142.415" r="1.58444" fill="#FFAFAF"/>
<circle cx="66.0801" cy="1.58444" r="1.58444" fill="#FFAFAF"/>
<circle cx="66.0801" cy="14.3873" r="1.58444" fill="#FFAFAF"/>
<circle cx="66.0801" cy="27.19" r="1.58444" fill="#FFAFAF"/>
<circle cx="66.0801" cy="39.9929" r="1.58444" fill="#FFAFAF"/>
<circle cx="66.0801" cy="52.7957" r="1.58444" fill="#FFAFAF"/>
<circle cx="66.0801" cy="65.5986" r="1.58444" fill="#FFAFAF"/>
<circle cx="66.0801" cy="78.4015" r="1.58444" fill="#FFAFAF"/>
<circle cx="66.0801" cy="91.2042" r="1.58444" fill="#FFAFAF"/>
<circle cx="66.0801" cy="104.007" r="1.58444" fill="#FFAFAF"/>
<circle cx="66.0801" cy="116.81" r="1.58444" fill="#FFAFAF"/>
<circle cx="66.0801" cy="129.613" r="1.58444" fill="#FFAFAF"/>
<circle cx="66.0801" cy="142.415" r="1.58444" fill="#FFAFAF"/>
<circle cx="78.8829" cy="1.58444" r="1.58444" fill="#FFAFAF"/>
<circle cx="78.8829" cy="14.3873" r="1.58444" fill="#FFAFAF"/>
<circle cx="78.8829" cy="27.19" r="1.58444" fill="#FFAFAF"/>
<circle cx="78.8829" cy="39.9929" r="1.58444" fill="#FFAFAF"/>
<circle cx="78.8829" cy="52.7957" r="1.58444" fill="#FFAFAF"/>
<circle cx="78.8829" cy="65.5986" r="1.58444" fill="#FFAFAF"/>
<circle cx="78.8829" cy="78.4015" r="1.58444" fill="#FFAFAF"/>
<circle cx="78.8829" cy="91.2042" r="1.58444" fill="#FFAFAF"/>
<circle cx="78.8829" cy="104.007" r="1.58444" fill="#FFAFAF"/>
<circle cx="78.8829" cy="116.81" r="1.58444" fill="#FFAFAF"/>
<circle cx="78.8829" cy="129.613" r="1.58444" fill="#FFAFAF"/>
<circle cx="78.8829" cy="142.415" r="1.58444" fill="#FFAFAF"/>
<circle cx="91.6857" cy="1.58444" r="1.58444" fill="#FFAFAF"/>
<circle cx="91.6857" cy="14.3873" r="1.58444" fill="#FFAFAF"/>
<circle cx="91.6857" cy="27.19" r="1.58444" fill="#FFAFAF"/>
<circle cx="91.6857" cy="39.9929" r="1.58444" fill="#FFAFAF"/>
<circle cx="91.6857" cy="52.7957" r="1.58444" fill="#FFAFAF"/>
<circle cx="91.6857" cy="65.5986" r="1.58444" fill="#FFAFAF"/>
<circle cx="91.6857" cy="78.4015" r="1.58444" fill="#FFAFAF"/>
<circle cx="91.6857" cy="91.2042" r="1.58444" fill="#FFAFAF"/>
<circle cx="91.6857" cy="104.007" r="1.58444" fill="#FFAFAF"/>
<circle cx="91.6857" cy="116.81" r="1.58444" fill="#FFAFAF"/>
<circle cx="91.6857" cy="129.613" r="1.58444" fill="#FFAFAF"/>
<circle cx="91.6857" cy="142.415" r="1.58444" fill="#FFAFAF"/>
<circle cx="104.489" cy="1.58444" r="1.58444" fill="#FFAFAF"/>
<circle cx="104.489" cy="14.3873" r="1.58444" fill="#FFAFAF"/>
<circle cx="104.489" cy="27.19" r="1.58444" fill="#FFAFAF"/>
<circle cx="104.489" cy="39.9929" r="1.58444" fill="#FFAFAF"/>
<circle cx="104.489" cy="52.7957" r="1.58444" fill="#FFAFAF"/>
<circle cx="104.489" cy="65.5986" r="1.58444" fill="#FFAFAF"/>
<circle cx="104.489" cy="78.4015" r="1.58444" fill="#FFAFAF"/>
<circle cx="104.489" cy="91.2042" r="1.58444" fill="#FFAFAF"/>
<circle cx="104.489" cy="104.007" r="1.58444" fill="#FFAFAF"/>
<circle cx="104.489" cy="116.81" r="1.58444" fill="#FFAFAF"/>
<circle cx="104.489" cy="129.613" r="1.58444" fill="#FFAFAF"/>
<circle cx="104.489" cy="142.415" r="1.58444" fill="#FFAFAF"/>
<circle cx="117.291" cy="1.58444" r="1.58444" fill="#FFAFAF"/>
<circle cx="117.291" cy="14.3873" r="1.58444" fill="#FFAFAF"/>
<circle cx="117.291" cy="27.19" r="1.58444" fill="#FFAFAF"/>
<circle cx="117.291" cy="39.9929" r="1.58444" fill="#FFAFAF"/>
<circle cx="117.291" cy="52.7957" r="1.58444" fill="#FFAFAF"/>
<circle cx="117.291" cy="65.5986" r="1.58444" fill="#FFAFAF"/>
<circle cx="117.291" cy="78.4015" r="1.58444" fill="#FFAFAF"/>
<circle cx="117.291" cy="91.2042" r="1.58444" fill="#FFAFAF"/>
<circle cx="117.291" cy="104.007" r="1.58444" fill="#FFAFAF"/>
<circle cx="117.291" cy="116.81" r="1.58444" fill="#FFAFAF"/>
<circle cx="117.291" cy="129.613" r="1.58444" fill="#FFAFAF"/>
<circle cx="117.291" cy="142.415" r="1.58444" fill="#FFAFAF"/>
<circle cx="130.094" cy="1.58444" r="1.58444" fill="#FFAFAF"/>
<circle cx="130.094" cy="14.3873" r="1.58444" fill="#FFAFAF"/>
<circle cx="130.094" cy="27.19" r="1.58444" fill="#FFAFAF"/>
<circle cx="130.094" cy="39.9929" r="1.58444" fill="#FFAFAF"/>
<circle cx="130.094" cy="52.7957" r="1.58444" fill="#FFAFAF"/>
<circle cx="130.094" cy="65.5986" r="1.58444" fill="#FFAFAF"/>
<circle cx="130.094" cy="78.4015" r="1.58444" fill="#FFAFAF"/>
<circle cx="130.094" cy="91.2042" r="1.58444" fill="#FFAFAF"/>
<circle cx="130.094" cy="104.007" r="1.58444" fill="#FFAFAF"/>
<circle cx="130.094" cy="116.81" r="1.58444" fill="#FFAFAF"/>
<circle cx="130.094" cy="129.613" r="1.58444" fill="#FFAFAF"/>
<circle cx="130.094" cy="142.415" r="1.58444" fill="#FFAFAF"/>
<circle cx="142.897" cy="1.58444" r="1.58444" fill="#FFAFAF"/>
<circle cx="142.897" cy="14.3873" r="1.58444" fill="#FFAFAF"/>
<circle cx="142.897" cy="27.19" r="1.58444" fill="#FFAFAF"/>
<circle cx="142.897" cy="39.9929" r="1.58444" fill="#FFAFAF"/>
<circle cx="142.897" cy="52.7957" r="1.58444" fill="#FFAFAF"/>
<circle cx="142.897" cy="65.5986" r="1.58444" fill="#FFAFAF"/>
<circle cx="142.897" cy="78.4015" r="1.58444" fill="#FFAFAF"/>
<circle cx="142.897" cy="91.2042" r="1.58444" fill="#FFAFAF"/>
<circle cx="142.897" cy="104.007" r="1.58444" fill="#FFAFAF"/>
<circle cx="142.897" cy="116.81" r="1.58444" fill="#FFAFAF"/>
<circle cx="142.897" cy="129.613" r="1.58444" fill="#FFAFAF"/>
<circle cx="142.897" cy="142.415" r="1.58444" fill="#FFAFAF"/>
</svg>
