<svg width="145" height="144" viewBox="0 0 145 144" fill="none" xmlns="http://www.w3.org/2000/svg">
<circle cx="2.10293" cy="1.58444" r="1.58444" fill="#016A70"/>
<circle cx="2.10293" cy="14.3873" r="1.58444" fill="#016A70"/>
<circle cx="2.10293" cy="27.19" r="1.58444" fill="#016A70"/>
<circle cx="2.10293" cy="39.9929" r="1.58444" fill="#016A70"/>
<circle cx="2.10293" cy="52.7957" r="1.58444" fill="#016A70"/>
<circle cx="2.10293" cy="65.5986" r="1.58444" fill="#016A70"/>
<circle cx="2.10293" cy="78.4015" r="1.58444" fill="#016A70"/>
<circle cx="2.10293" cy="91.2042" r="1.58444" fill="#016A70"/>
<circle cx="2.10293" cy="104.007" r="1.58444" fill="#016A70"/>
<circle cx="2.10293" cy="116.81" r="1.58444" fill="#016A70"/>
<circle cx="2.10293" cy="129.613" r="1.58444" fill="#016A70"/>
<circle cx="2.10293" cy="142.415" r="1.58444" fill="#016A70"/>
<circle cx="14.9058" cy="1.58444" r="1.58444" fill="#016A70"/>
<circle cx="14.9058" cy="14.3873" r="1.58444" fill="#016A70"/>
<circle cx="14.9058" cy="27.19" r="1.58444" fill="#016A70"/>
<circle cx="14.9058" cy="39.9929" r="1.58444" fill="#016A70"/>
<circle cx="14.9058" cy="52.7957" r="1.58444" fill="#016A70"/>
<circle cx="14.9058" cy="65.5986" r="1.58444" fill="#016A70"/>
<circle cx="14.9058" cy="78.4015" r="1.58444" fill="#016A70"/>
<circle cx="14.9058" cy="91.2042" r="1.58444" fill="#016A70"/>
<circle cx="14.9058" cy="104.007" r="1.58444" fill="#016A70"/>
<circle cx="14.9058" cy="116.81" r="1.58444" fill="#016A70"/>
<circle cx="14.9058" cy="129.613" r="1.58444" fill="#016A70"/>
<circle cx="14.9058" cy="142.415" r="1.58444" fill="#016A70"/>
<circle cx="27.7086" cy="1.58444" r="1.58444" fill="#016A70"/>
<circle cx="27.7086" cy="14.3873" r="1.58444" fill="#016A70"/>
<circle cx="27.7086" cy="27.19" r="1.58444" fill="#016A70"/>
<circle cx="27.7086" cy="39.9929" r="1.58444" fill="#016A70"/>
<circle cx="27.7086" cy="52.7957" r="1.58444" fill="#016A70"/>
<circle cx="27.7086" cy="65.5986" r="1.58444" fill="#016A70"/>
<circle cx="27.7086" cy="78.4015" r="1.58444" fill="#016A70"/>
<circle cx="27.7086" cy="91.2042" r="1.58444" fill="#016A70"/>
<circle cx="27.7086" cy="104.007" r="1.58444" fill="#016A70"/>
<circle cx="27.7086" cy="116.81" r="1.58444" fill="#016A70"/>
<circle cx="27.7086" cy="129.613" r="1.58444" fill="#016A70"/>
<circle cx="27.7086" cy="142.415" r="1.58444" fill="#016A70"/>
<circle cx="40.5114" cy="1.58444" r="1.58444" fill="#016A70"/>
<circle cx="40.5114" cy="14.3873" r="1.58444" fill="#016A70"/>
<circle cx="40.5114" cy="27.19" r="1.58444" fill="#016A70"/>
<circle cx="40.5114" cy="39.9929" r="1.58444" fill="#016A70"/>
<circle cx="40.5114" cy="52.7957" r="1.58444" fill="#016A70"/>
<circle cx="40.5114" cy="65.5986" r="1.58444" fill="#016A70"/>
<circle cx="40.5114" cy="78.4015" r="1.58444" fill="#016A70"/>
<circle cx="40.5114" cy="91.2042" r="1.58444" fill="#016A70"/>
<circle cx="40.5114" cy="104.007" r="1.58444" fill="#016A70"/>
<circle cx="40.5114" cy="116.81" r="1.58444" fill="#016A70"/>
<circle cx="40.5114" cy="129.613" r="1.58444" fill="#016A70"/>
<circle cx="40.5114" cy="142.415" r="1.58444" fill="#016A70"/>
<circle cx="53.3142" cy="1.58444" r="1.58444" fill="#016A70"/>
<circle cx="53.3142" cy="14.3873" r="1.58444" fill="#016A70"/>
<circle cx="53.3142" cy="27.19" r="1.58444" fill="#016A70"/>
<circle cx="53.3142" cy="39.9929" r="1.58444" fill="#016A70"/>
<circle cx="53.3142" cy="52.7957" r="1.58444" fill="#016A70"/>
<circle cx="53.3142" cy="65.5986" r="1.58444" fill="#016A70"/>
<circle cx="53.3142" cy="78.4015" r="1.58444" fill="#016A70"/>
<circle cx="53.3142" cy="91.2042" r="1.58444" fill="#016A70"/>
<circle cx="53.3142" cy="104.007" r="1.58444" fill="#016A70"/>
<circle cx="53.3142" cy="116.81" r="1.58444" fill="#016A70"/>
<circle cx="53.3142" cy="129.613" r="1.58444" fill="#016A70"/>
<circle cx="53.3142" cy="142.415" r="1.58444" fill="#016A70"/>
<circle cx="66.1171" cy="1.58444" r="1.58444" fill="#016A70"/>
<circle cx="66.1171" cy="14.3873" r="1.58444" fill="#016A70"/>
<circle cx="66.1171" cy="27.19" r="1.58444" fill="#016A70"/>
<circle cx="66.1171" cy="39.9929" r="1.58444" fill="#016A70"/>
<circle cx="66.1171" cy="52.7957" r="1.58444" fill="#016A70"/>
<circle cx="66.1171" cy="65.5986" r="1.58444" fill="#016A70"/>
<circle cx="66.1171" cy="78.4015" r="1.58444" fill="#016A70"/>
<circle cx="66.1171" cy="91.2042" r="1.58444" fill="#016A70"/>
<circle cx="66.1171" cy="104.007" r="1.58444" fill="#016A70"/>
<circle cx="66.1171" cy="116.81" r="1.58444" fill="#016A70"/>
<circle cx="66.1171" cy="129.613" r="1.58444" fill="#016A70"/>
<circle cx="66.1171" cy="142.415" r="1.58444" fill="#016A70"/>
<circle cx="78.9199" cy="1.58444" r="1.58444" fill="#016A70"/>
<circle cx="78.9199" cy="14.3873" r="1.58444" fill="#016A70"/>
<circle cx="78.9199" cy="27.19" r="1.58444" fill="#016A70"/>
<circle cx="78.9199" cy="39.9929" r="1.58444" fill="#016A70"/>
<circle cx="78.9199" cy="52.7957" r="1.58444" fill="#016A70"/>
<circle cx="78.9199" cy="65.5986" r="1.58444" fill="#016A70"/>
<circle cx="78.9199" cy="78.4015" r="1.58444" fill="#016A70"/>
<circle cx="78.9199" cy="91.2042" r="1.58444" fill="#016A70"/>
<circle cx="78.9199" cy="104.007" r="1.58444" fill="#016A70"/>
<circle cx="78.9199" cy="116.81" r="1.58444" fill="#016A70"/>
<circle cx="78.9199" cy="129.613" r="1.58444" fill="#016A70"/>
<circle cx="78.9199" cy="142.415" r="1.58444" fill="#016A70"/>
<circle cx="91.7227" cy="1.58444" r="1.58444" fill="#016A70"/>
<circle cx="91.7227" cy="14.3873" r="1.58444" fill="#016A70"/>
<circle cx="91.7227" cy="27.19" r="1.58444" fill="#016A70"/>
<circle cx="91.7227" cy="39.9929" r="1.58444" fill="#016A70"/>
<circle cx="91.7227" cy="52.7957" r="1.58444" fill="#016A70"/>
<circle cx="91.7227" cy="65.5986" r="1.58444" fill="#016A70"/>
<circle cx="91.7227" cy="78.4015" r="1.58444" fill="#016A70"/>
<circle cx="91.7227" cy="91.2042" r="1.58444" fill="#016A70"/>
<circle cx="91.7227" cy="104.007" r="1.58444" fill="#016A70"/>
<circle cx="91.7227" cy="116.81" r="1.58444" fill="#016A70"/>
<circle cx="91.7227" cy="129.613" r="1.58444" fill="#016A70"/>
<circle cx="91.7227" cy="142.415" r="1.58444" fill="#016A70"/>
<circle cx="104.526" cy="1.58444" r="1.58444" fill="#016A70"/>
<circle cx="104.526" cy="14.3873" r="1.58444" fill="#016A70"/>
<circle cx="104.526" cy="27.19" r="1.58444" fill="#016A70"/>
<circle cx="104.526" cy="39.9929" r="1.58444" fill="#016A70"/>
<circle cx="104.526" cy="52.7957" r="1.58444" fill="#016A70"/>
<circle cx="104.526" cy="65.5986" r="1.58444" fill="#016A70"/>
<circle cx="104.526" cy="78.4015" r="1.58444" fill="#016A70"/>
<circle cx="104.526" cy="91.2042" r="1.58444" fill="#016A70"/>
<circle cx="104.526" cy="104.007" r="1.58444" fill="#016A70"/>
<circle cx="104.526" cy="116.81" r="1.58444" fill="#016A70"/>
<circle cx="104.526" cy="129.613" r="1.58444" fill="#016A70"/>
<circle cx="104.526" cy="142.415" r="1.58444" fill="#016A70"/>
<circle cx="117.328" cy="1.58444" r="1.58444" fill="#016A70"/>
<circle cx="117.328" cy="14.3873" r="1.58444" fill="#016A70"/>
<circle cx="117.328" cy="27.19" r="1.58444" fill="#016A70"/>
<circle cx="117.328" cy="39.9929" r="1.58444" fill="#016A70"/>
<circle cx="117.328" cy="52.7957" r="1.58444" fill="#016A70"/>
<circle cx="117.328" cy="65.5986" r="1.58444" fill="#016A70"/>
<circle cx="117.328" cy="78.4015" r="1.58444" fill="#016A70"/>
<circle cx="117.328" cy="91.2042" r="1.58444" fill="#016A70"/>
<circle cx="117.328" cy="104.007" r="1.58444" fill="#016A70"/>
<circle cx="117.328" cy="116.81" r="1.58444" fill="#016A70"/>
<circle cx="117.328" cy="129.613" r="1.58444" fill="#016A70"/>
<circle cx="117.328" cy="142.415" r="1.58444" fill="#016A70"/>
<circle cx="130.131" cy="1.58444" r="1.58444" fill="#016A70"/>
<circle cx="130.131" cy="14.3873" r="1.58444" fill="#016A70"/>
<circle cx="130.131" cy="27.19" r="1.58444" fill="#016A70"/>
<circle cx="130.131" cy="39.9929" r="1.58444" fill="#016A70"/>
<circle cx="130.131" cy="52.7957" r="1.58444" fill="#016A70"/>
<circle cx="130.131" cy="65.5986" r="1.58444" fill="#016A70"/>
<circle cx="130.131" cy="78.4015" r="1.58444" fill="#016A70"/>
<circle cx="130.131" cy="91.2042" r="1.58444" fill="#016A70"/>
<circle cx="130.131" cy="104.007" r="1.58444" fill="#016A70"/>
<circle cx="130.131" cy="116.81" r="1.58444" fill="#016A70"/>
<circle cx="130.131" cy="129.613" r="1.58444" fill="#016A70"/>
<circle cx="130.131" cy="142.415" r="1.58444" fill="#016A70"/>
<circle cx="142.934" cy="1.58444" r="1.58444" fill="#016A70"/>
<circle cx="142.934" cy="14.3873" r="1.58444" fill="#016A70"/>
<circle cx="142.934" cy="27.19" r="1.58444" fill="#016A70"/>
<circle cx="142.934" cy="39.9929" r="1.58444" fill="#016A70"/>
<circle cx="142.934" cy="52.7957" r="1.58444" fill="#016A70"/>
<circle cx="142.934" cy="65.5986" r="1.58444" fill="#016A70"/>
<circle cx="142.934" cy="78.4015" r="1.58444" fill="#016A70"/>
<circle cx="142.934" cy="91.2042" r="1.58444" fill="#016A70"/>
<circle cx="142.934" cy="104.007" r="1.58444" fill="#016A70"/>
<circle cx="142.934" cy="116.81" r="1.58444" fill="#016A70"/>
<circle cx="142.934" cy="129.613" r="1.58444" fill="#016A70"/>
<circle cx="142.934" cy="142.415" r="1.58444" fill="#016A70"/>
</svg>
