<svg width="144" height="144" viewBox="0 0 144 144" fill="none" xmlns="http://www.w3.org/2000/svg">
<circle cx="1.58444" cy="1.58444" r="1.58444" fill="#252B48"/>
<circle cx="1.58444" cy="14.3873" r="1.58444" fill="#252B48"/>
<circle cx="1.58444" cy="27.19" r="1.58444" fill="#252B48"/>
<circle cx="1.58444" cy="39.9929" r="1.58444" fill="#252B48"/>
<circle cx="1.58444" cy="52.7957" r="1.58444" fill="#252B48"/>
<circle cx="1.58444" cy="65.5986" r="1.58444" fill="#252B48"/>
<circle cx="1.58444" cy="78.4015" r="1.58444" fill="#252B48"/>
<circle cx="1.58444" cy="91.2042" r="1.58444" fill="#252B48"/>
<circle cx="1.58444" cy="104.007" r="1.58444" fill="#252B48"/>
<circle cx="1.58444" cy="116.81" r="1.58444" fill="#252B48"/>
<circle cx="1.58444" cy="129.613" r="1.58444" fill="#252B48"/>
<circle cx="1.58444" cy="142.415" r="1.58444" fill="#252B48"/>
<circle cx="14.3873" cy="1.58444" r="1.58444" fill="#252B48"/>
<circle cx="14.3873" cy="14.3873" r="1.58444" fill="#252B48"/>
<circle cx="14.3873" cy="27.19" r="1.58444" fill="#252B48"/>
<circle cx="14.3873" cy="39.9929" r="1.58444" fill="#252B48"/>
<circle cx="14.3873" cy="52.7957" r="1.58444" fill="#252B48"/>
<circle cx="14.3873" cy="65.5986" r="1.58444" fill="#252B48"/>
<circle cx="14.3873" cy="78.4015" r="1.58444" fill="#252B48"/>
<circle cx="14.3873" cy="91.2042" r="1.58444" fill="#252B48"/>
<circle cx="14.3873" cy="104.007" r="1.58444" fill="#252B48"/>
<circle cx="14.3873" cy="116.81" r="1.58444" fill="#252B48"/>
<circle cx="14.3873" cy="129.613" r="1.58444" fill="#252B48"/>
<circle cx="14.3873" cy="142.415" r="1.58444" fill="#252B48"/>
<circle cx="27.1901" cy="1.58444" r="1.58444" fill="#252B48"/>
<circle cx="27.1901" cy="14.3873" r="1.58444" fill="#252B48"/>
<circle cx="27.1901" cy="27.19" r="1.58444" fill="#252B48"/>
<circle cx="27.1901" cy="39.9929" r="1.58444" fill="#252B48"/>
<circle cx="27.1901" cy="52.7957" r="1.58444" fill="#252B48"/>
<circle cx="27.1901" cy="65.5986" r="1.58444" fill="#252B48"/>
<circle cx="27.1901" cy="78.4015" r="1.58444" fill="#252B48"/>
<circle cx="27.1901" cy="91.2042" r="1.58444" fill="#252B48"/>
<circle cx="27.1901" cy="104.007" r="1.58444" fill="#252B48"/>
<circle cx="27.1901" cy="116.81" r="1.58444" fill="#252B48"/>
<circle cx="27.1901" cy="129.613" r="1.58444" fill="#252B48"/>
<circle cx="27.1901" cy="142.415" r="1.58444" fill="#252B48"/>
<circle cx="39.9929" cy="1.58444" r="1.58444" fill="#252B48"/>
<circle cx="39.9929" cy="14.3873" r="1.58444" fill="#252B48"/>
<circle cx="39.9929" cy="27.19" r="1.58444" fill="#252B48"/>
<circle cx="39.9929" cy="39.9929" r="1.58444" fill="#252B48"/>
<circle cx="39.9929" cy="52.7957" r="1.58444" fill="#252B48"/>
<circle cx="39.9929" cy="65.5986" r="1.58444" fill="#252B48"/>
<circle cx="39.9929" cy="78.4015" r="1.58444" fill="#252B48"/>
<circle cx="39.9929" cy="91.2042" r="1.58444" fill="#252B48"/>
<circle cx="39.9929" cy="104.007" r="1.58444" fill="#252B48"/>
<circle cx="39.9929" cy="116.81" r="1.58444" fill="#252B48"/>
<circle cx="39.9929" cy="129.613" r="1.58444" fill="#252B48"/>
<circle cx="39.9929" cy="142.415" r="1.58444" fill="#252B48"/>
<circle cx="52.7957" cy="1.58444" r="1.58444" fill="#252B48"/>
<circle cx="52.7957" cy="14.3873" r="1.58444" fill="#252B48"/>
<circle cx="52.7957" cy="27.19" r="1.58444" fill="#252B48"/>
<circle cx="52.7957" cy="39.9929" r="1.58444" fill="#252B48"/>
<circle cx="52.7957" cy="52.7957" r="1.58444" fill="#252B48"/>
<circle cx="52.7957" cy="65.5986" r="1.58444" fill="#252B48"/>
<circle cx="52.7957" cy="78.4015" r="1.58444" fill="#252B48"/>
<circle cx="52.7957" cy="91.2042" r="1.58444" fill="#252B48"/>
<circle cx="52.7957" cy="104.007" r="1.58444" fill="#252B48"/>
<circle cx="52.7957" cy="116.81" r="1.58444" fill="#252B48"/>
<circle cx="52.7957" cy="129.613" r="1.58444" fill="#252B48"/>
<circle cx="52.7957" cy="142.415" r="1.58444" fill="#252B48"/>
<circle cx="65.5986" cy="1.58444" r="1.58444" fill="#252B48"/>
<circle cx="65.5986" cy="14.3873" r="1.58444" fill="#252B48"/>
<circle cx="65.5986" cy="27.19" r="1.58444" fill="#252B48"/>
<circle cx="65.5986" cy="39.9929" r="1.58444" fill="#252B48"/>
<circle cx="65.5986" cy="52.7957" r="1.58444" fill="#252B48"/>
<circle cx="65.5986" cy="65.5986" r="1.58444" fill="#252B48"/>
<circle cx="65.5986" cy="78.4015" r="1.58444" fill="#252B48"/>
<circle cx="65.5986" cy="91.2042" r="1.58444" fill="#252B48"/>
<circle cx="65.5986" cy="104.007" r="1.58444" fill="#252B48"/>
<circle cx="65.5986" cy="116.81" r="1.58444" fill="#252B48"/>
<circle cx="65.5986" cy="129.613" r="1.58444" fill="#252B48"/>
<circle cx="65.5986" cy="142.415" r="1.58444" fill="#252B48"/>
<circle cx="78.4015" cy="1.58444" r="1.58444" fill="#252B48"/>
<circle cx="78.4015" cy="14.3873" r="1.58444" fill="#252B48"/>
<circle cx="78.4015" cy="27.19" r="1.58444" fill="#252B48"/>
<circle cx="78.4015" cy="39.9929" r="1.58444" fill="#252B48"/>
<circle cx="78.4015" cy="52.7957" r="1.58444" fill="#252B48"/>
<circle cx="78.4015" cy="65.5986" r="1.58444" fill="#252B48"/>
<circle cx="78.4015" cy="78.4015" r="1.58444" fill="#252B48"/>
<circle cx="78.4015" cy="91.2042" r="1.58444" fill="#252B48"/>
<circle cx="78.4015" cy="104.007" r="1.58444" fill="#252B48"/>
<circle cx="78.4015" cy="116.81" r="1.58444" fill="#252B48"/>
<circle cx="78.4015" cy="129.613" r="1.58444" fill="#252B48"/>
<circle cx="78.4015" cy="142.415" r="1.58444" fill="#252B48"/>
<circle cx="91.2043" cy="1.58444" r="1.58444" fill="#252B48"/>
<circle cx="91.2043" cy="14.3873" r="1.58444" fill="#252B48"/>
<circle cx="91.2043" cy="27.19" r="1.58444" fill="#252B48"/>
<circle cx="91.2043" cy="39.9929" r="1.58444" fill="#252B48"/>
<circle cx="91.2043" cy="52.7957" r="1.58444" fill="#252B48"/>
<circle cx="91.2043" cy="65.5986" r="1.58444" fill="#252B48"/>
<circle cx="91.2043" cy="78.4015" r="1.58444" fill="#252B48"/>
<circle cx="91.2043" cy="91.2042" r="1.58444" fill="#252B48"/>
<circle cx="91.2043" cy="104.007" r="1.58444" fill="#252B48"/>
<circle cx="91.2043" cy="116.81" r="1.58444" fill="#252B48"/>
<circle cx="91.2043" cy="129.613" r="1.58444" fill="#252B48"/>
<circle cx="91.2043" cy="142.415" r="1.58444" fill="#252B48"/>
<circle cx="104.007" cy="1.58444" r="1.58444" fill="#252B48"/>
<circle cx="104.007" cy="14.3873" r="1.58444" fill="#252B48"/>
<circle cx="104.007" cy="27.19" r="1.58444" fill="#252B48"/>
<circle cx="104.007" cy="39.9929" r="1.58444" fill="#252B48"/>
<circle cx="104.007" cy="52.7957" r="1.58444" fill="#252B48"/>
<circle cx="104.007" cy="65.5986" r="1.58444" fill="#252B48"/>
<circle cx="104.007" cy="78.4015" r="1.58444" fill="#252B48"/>
<circle cx="104.007" cy="91.2042" r="1.58444" fill="#252B48"/>
<circle cx="104.007" cy="104.007" r="1.58444" fill="#252B48"/>
<circle cx="104.007" cy="116.81" r="1.58444" fill="#252B48"/>
<circle cx="104.007" cy="129.613" r="1.58444" fill="#252B48"/>
<circle cx="104.007" cy="142.415" r="1.58444" fill="#252B48"/>
<circle cx="116.81" cy="1.58444" r="1.58444" fill="#252B48"/>
<circle cx="116.81" cy="14.3873" r="1.58444" fill="#252B48"/>
<circle cx="116.81" cy="27.19" r="1.58444" fill="#252B48"/>
<circle cx="116.81" cy="39.9929" r="1.58444" fill="#252B48"/>
<circle cx="116.81" cy="52.7957" r="1.58444" fill="#252B48"/>
<circle cx="116.81" cy="65.5986" r="1.58444" fill="#252B48"/>
<circle cx="116.81" cy="78.4015" r="1.58444" fill="#252B48"/>
<circle cx="116.81" cy="91.2042" r="1.58444" fill="#252B48"/>
<circle cx="116.81" cy="104.007" r="1.58444" fill="#252B48"/>
<circle cx="116.81" cy="116.81" r="1.58444" fill="#252B48"/>
<circle cx="116.81" cy="129.613" r="1.58444" fill="#252B48"/>
<circle cx="116.81" cy="142.415" r="1.58444" fill="#252B48"/>
<circle cx="129.613" cy="1.58444" r="1.58444" fill="#252B48"/>
<circle cx="129.613" cy="14.3873" r="1.58444" fill="#252B48"/>
<circle cx="129.613" cy="27.19" r="1.58444" fill="#252B48"/>
<circle cx="129.613" cy="39.9929" r="1.58444" fill="#252B48"/>
<circle cx="129.613" cy="52.7957" r="1.58444" fill="#252B48"/>
<circle cx="129.613" cy="65.5986" r="1.58444" fill="#252B48"/>
<circle cx="129.613" cy="78.4015" r="1.58444" fill="#252B48"/>
<circle cx="129.613" cy="91.2042" r="1.58444" fill="#252B48"/>
<circle cx="129.613" cy="104.007" r="1.58444" fill="#252B48"/>
<circle cx="129.613" cy="116.81" r="1.58444" fill="#252B48"/>
<circle cx="129.613" cy="129.613" r="1.58444" fill="#252B48"/>
<circle cx="129.613" cy="142.415" r="1.58444" fill="#252B48"/>
<circle cx="142.416" cy="1.58444" r="1.58444" fill="#252B48"/>
<circle cx="142.416" cy="14.3873" r="1.58444" fill="#252B48"/>
<circle cx="142.416" cy="27.19" r="1.58444" fill="#252B48"/>
<circle cx="142.416" cy="39.9929" r="1.58444" fill="#252B48"/>
<circle cx="142.416" cy="52.7957" r="1.58444" fill="#252B48"/>
<circle cx="142.416" cy="65.5986" r="1.58444" fill="#252B48"/>
<circle cx="142.416" cy="78.4015" r="1.58444" fill="#252B48"/>
<circle cx="142.416" cy="91.2042" r="1.58444" fill="#252B48"/>
<circle cx="142.416" cy="104.007" r="1.58444" fill="#252B48"/>
<circle cx="142.416" cy="116.81" r="1.58444" fill="#252B48"/>
<circle cx="142.416" cy="129.613" r="1.58444" fill="#252B48"/>
<circle cx="142.416" cy="142.415" r="1.58444" fill="#252B48"/>
</svg>
